<?xml version="1.0" standalone="yes"?>
<svg xmlns="http://www.w3.org/2000/svg" width="1060" height="466">
<path style="fill:#ffffff; stroke:none;" d="M0 0L0 466L1060 466L1060 0L0 0z"/>
<path style="fill:#abcef2; stroke:none;" d="M457.667 89.3333C457.222 89.7777 458.278 89.7223 458.333 89.6667C458.778 89.2222 457.722 89.2778 457.667 89.3333z"/>
<path style="fill:#69a7e6; stroke:none;" d="M469 269L469 192L498 192C501.872 192 507.231 191.072 510.867 192.603C514.508 194.137 515.819 199.101 518.329 201.907C522.781 206.88 529.325 209.97 536 209.971C562.973 209.972 570.19 170.607 544 162.224C535.496 159.502 525.508 161.862 519.185 168.185C516.282 171.088 514.652 176.718 510.787 178.397C507.213 179.949 501.821 179 498 179L469 179L469 150C469 146.5 468.107 141.39 470.028 138.274C473.392 132.814 480.745 131.334 484.004 124.999C485.721 121.662 486.904 117.77 486.921 114C487.051 85.0566 443.367 80.0578 438.329 109C437.018 116.532 439.802 125.424 445.185 130.815C449.007 134.643 455.397 135.945 455.941 142.015C456.882 152.504 456 163.467 456 174L456 239L456 265C456 268.904 455.114 274.205 456.742 277.856C458.318 281.389 462.595 281.804 466 281.961C474.958 282.371 484.033 282.043 493 281.999C496.388 281.983 500.896 282.267 503.397 279.486C506.59 275.935 504.258 270.439 499.981 269.318C490.785 266.908 478.507 269 469 269z"/>
<path style="fill:#b9d6f3; stroke:none;" d="M482 99L483 100L482 99z"/>
<path style="fill:#afd1f2; stroke:none;" d="M486.333 108.667C486.278 108.722 486.222 109.778 486.667 109.333C486.722 109.278 486.778 108.222 486.333 108.667z"/>
<path style="fill:#bfd9f4; stroke:none;" d="M438.333 117.667C438.278 117.722 438.222 118.778 438.667 118.333C438.722 118.278 438.778 117.222 438.333 117.667z"/>
<path style="fill:#dbeafa; stroke:none;" d="M439.333 121.667C439.278 121.722 439.222 122.778 439.667 122.333C439.722 122.278 439.778 121.222 439.333 121.667z"/>
<path style="fill:#b4d3f2; stroke:none;" d="M485 121L486 122L485 121z"/>
<path style="fill:#b0d0f1; stroke:none;" d="M442 127L443 128L442 127z"/>
<path style="fill:#b3d3f3; stroke:none;" d="M477 132L478 133L477 132z"/>
<path style="fill:#bfd9f4; stroke:none;" d="M448 133L449 134L448 133z"/>
<path style="fill:#adcff2; stroke:none;" d="M531.667 161.333C531.222 161.778 532.278 161.722 532.333 161.667C532.778 161.222 531.722 161.278 531.667 161.333z"/>
<path style="fill:#bfd9f4; stroke:none;" d="M550 165L551 166L550 165z"/>
<path style="fill:#adcff1; stroke:none;" d="M556 171L557 172L556 171z"/>
<path style="fill:#a4caef; stroke:none;" d="M560.333 180.667C560.278 180.722 560.222 181.778 560.667 181.333C560.722 181.278 560.778 180.222 560.333 180.667z"/>
<path style="fill:#8fbded; stroke:none;" d="M560 187L560 190C560.696 188.446 560.696 188.554 560 187z"/>
<path style="fill:#dbeaf9; stroke:none;" d="M607 189C609.052 189.874 610.747 189.953 613 190C610.948 189.126 609.253 189.047 607 189z"/>
<path style="fill:#b3d2f2; stroke:none;" d="M603 190C604.248 190.685 604.548 190.749 606 191C604.752 190.315 604.452 190.251 603 190z"/>
<path style="fill:#69a7e6; stroke:none;" d="M606 190.44C594.805 192.225 587.595 202.405 580 210L541 249C534.755 255.245 526.463 261.5 521.738 269C519.54 272.491 519.148 277.068 518.116 281C516.324 287.823 513.174 294.972 512.484 302C512.055 306.369 514.313 309.914 519.004 309.757C524.608 309.569 530.726 306.741 536 305.001C542.266 302.933 550.464 302.05 556 298.411C561.614 294.721 566.267 288.733 571 284L599 256C608.771 246.245 621.101 237.658 628.751 226C639.752 209.234 625.951 187.258 606 190.44z"/>
<path style="fill:#bdd7f3; stroke:none;" d="M614.667 190.333C614.222 190.778 615.278 190.722 615.333 190.667C615.778 190.222 614.722 190.278 614.667 190.333z"/>
<path style="fill:#b9d6f3; stroke:none;" d="M618 191L619 192L618 191z"/>
<path style="fill:#b5d3f2; stroke:none;" d="M620 192L621 193L620 192z"/>
<path style="fill:#a9ccf1; stroke:none;" d="M559 193L560 194L559 193z"/>
<path style="fill:#bfd9f4; stroke:none;" d="M622 193L623 194L622 193z"/>
<path style="fill:#b7d4f2; stroke:none;" d="M556 199L557 200L556 199z"/>
<path style="fill:#b6d4f2; stroke:none;" d="M630 202L631 203L630 202z"/>
<path style="fill:#aacdf1; stroke:none;" d="M551 204L552 205L551 204z"/>
<path style="fill:#96c1ed; stroke:none;" d="M631.333 204.667C631.278 204.722 631.222 205.778 631.667 205.333C631.722 205.278 631.778 204.222 631.333 204.667z"/>
<path style="fill:#b9d6f3; stroke:none;" d="M522 205L523 206L522 205z"/>
<path style="fill:#b6d3f3; stroke:none;" d="M632.333 207.667C632.278 207.722 632.222 208.778 632.667 208.333C632.722 208.278 632.778 207.222 632.333 207.667z"/>
<path style="fill:#bcd8f4; stroke:none;" d="M632.333 216.667C632.278 216.722 632.222 217.778 632.667 217.333C632.722 217.278 632.778 216.222 632.333 216.667z"/>
<path style="fill:#ffffff; stroke:none;" d="M586 222L538 270C540.636 273.742 546.916 282.793 552 282.793C554.422 282.793 556.398 280.502 558 278.98C562.436 274.767 566.674 270.326 571 266L592 245C594.222 242.773 598.793 239.503 598.793 236C598.793 230.916 589.742 224.636 586 222z"/>
<path style="fill:#b5d3f2; stroke:none;" d="M627 227L628 228L627 227z"/>
<path style="fill:#93c0ed; stroke:none;" d="M600.333 235.667C600.278 235.722 600.222 236.778 600.667 236.333C600.722 236.278 600.778 235.222 600.333 235.667z"/>
<path style="fill:#abcef2; stroke:none;" d="M606 248L607 249L606 248M605 249L606 250L605 249M604 250L605 251L604 250M603 251L604 252L603 251M602 252L603 253L602 252z"/>
<path style="fill:#b2d2f2; stroke:none;" d="M601 253L602 254L601 253z"/>
<path style="fill:#b8d6f3; stroke:none;" d="M600 254L601 255L600 254M599 255L600 256L599 255M598 256L599 257L598 256M597 257L598 258L597 257M596 258L597 259L596 258z"/>
<path style="fill:#bdd9f4; stroke:none;" d="M595 259L596 260L595 259M594 260L595 261L594 260M593 261L594 262L593 261M592 262L593 263L592 262M591 263L592 264L591 263M588 266L589 267L588 266z"/>
<path style="fill:#b2d1f2; stroke:none;" d="M522 267L523 268L522 267z"/>
<path style="fill:#dbeaf9; stroke:none;" d="M469 268C477.367 271.511 490.924 269 500 269C491.633 265.489 478.076 268 469 268z"/>
<path style="fill:#c1daf5; stroke:none;" d="M505 274L505 277C505.696 275.446 505.696 275.554 505 274z"/>
<path style="fill:#a5caf0; stroke:none;" d="M519.333 274.667C519.278 274.722 519.222 275.778 519.667 275.333C519.722 275.278 519.778 274.222 519.333 274.667z"/>
<path style="fill:#9ac4ee; stroke:none;" d="M518.333 278.667C518.278 278.722 518.222 279.778 518.667 279.333C518.722 279.278 518.778 278.222 518.333 278.667z"/>
<path style="fill:#9fc6ef; stroke:none;" d="M459 281C460.248 281.685 460.548 281.749 462 282C460.752 281.315 460.452 281.251 459 281z"/>
<path style="fill:#b6d5f3; stroke:none;" d="M500.667 281.333C500.222 281.778 501.278 281.722 501.333 281.667C501.778 281.222 500.722 281.278 500.667 281.333z"/>
<path style="fill:#8ebdec; stroke:none;" d="M517.333 282.667C517.278 282.722 517.222 283.778 517.667 283.333C517.722 283.278 517.778 282.222 517.333 282.667z"/>
<path style="fill:#9ec6ef; stroke:none;" d="M551.667 284.333C551.222 284.778 552.278 284.722 552.333 284.667C552.778 284.222 551.722 284.278 551.667 284.333z"/>
<path style="fill:#abcef1; stroke:none;" d="M516.333 285.667C516.278 285.722 516.222 286.778 516.667 286.333C516.722 286.278 516.778 285.222 516.333 285.667z"/>
<path style="fill:#9fc7ef; stroke:none;" d="M515.333 289.667C515.278 289.722 515.222 290.778 515.667 290.333C515.722 290.278 515.778 289.222 515.333 289.667z"/>
<path style="fill:#93c0ed; stroke:none;" d="M514.333 293.667C514.278 293.722 514.222 294.778 514.667 294.333C514.722 294.278 514.778 293.222 514.333 293.667z"/>
<path style="fill:#a5caf0; stroke:none;" d="M512.333 300.667C512.278 300.722 512.222 301.778 512.667 301.333C512.722 301.278 512.778 300.222 512.333 300.667z"/>
<path style="fill:#d4e6f7; stroke:none;" d="M550 300C551.248 300.685 551.549 300.749 553 301C551.752 300.315 551.452 300.251 550 300z"/>
<path style="fill:#cce1f7; stroke:none;" d="M540.667 303.333C540.222 303.778 541.278 303.722 541.333 303.667C541.778 303.222 540.722 303.278 540.667 303.333z"/>
<path style="fill:#d4e6f7; stroke:none;" d="M537.667 304.333C537.222 304.778 538.278 304.722 538.333 304.667C538.778 304.222 537.722 304.278 537.667 304.333z"/>
<path style="fill:#c9dff7; stroke:none;" d="M524.667 308.333C524.222 308.778 525.278 308.722 525.333 308.667C525.778 308.222 524.722 308.278 524.667 308.333z"/>
<path style="fill:#d1e4f7; stroke:none;" d="M521.667 309.333C521.222 309.778 522.278 309.722 522.333 309.667C522.778 309.222 521.722 309.278 521.667 309.333z"/>
<path style="fill:#d6e7f7; stroke:none;" d="M517 310C518.248 310.685 518.549 310.749 520 311C518.752 310.315 518.452 310.251 517 310z"/>
<path style="fill:#dbebfb; stroke:none;" d="M325 333C328.959 334.661 333.737 334 338 334C334.041 332.339 329.263 333 325 333z"/>
<path style="fill:#c3ddf8; stroke:none;" d="M946.667 333.333C946.222 333.778 947.278 333.722 947.333 333.667C947.778 333.222 946.722 333.278 946.667 333.333z"/>
<path style="fill:#94c3f3; stroke:none;" d="M948 333C951.699 334.552 956.017 334 960 334L980 334L980 346L949 346C952.699 347.552 957.017 347 961 347L981 347L981 333L948 333z"/>
<path style="fill:#add1f6; stroke:none;" d="M1004 333C1005.51 333.683 1006.31 333.826 1008 334C1006.49 333.317 1005.69 333.174 1004 333z"/>
<path style="fill:#94c3f3; stroke:none;" d="M1008 333C1016.37 336.511 1029.92 334 1039 334C1030.63 330.489 1017.08 333 1008 333z"/>
<path style="fill:#b9d8f6; stroke:none;" d="M1039 333L1039 347C1040.67 343.028 1040.67 336.972 1039 333z"/>
<path style="fill:#eef5fd; stroke:none;" d="M324 334L324 414C326.497 408.049 325 399.42 325 393L325 353C325 347.113 326.292 339.462 324 334z"/>
<path style="fill:#72b0ee; stroke:none;" d="M325 334L325 414L338 414L338 334L325 334z"/>
<path style="fill:#c2ddf8; stroke:none;" d="M338 334L338 414C340.497 408.049 339 399.42 339 393L339 353C339 347.113 340.292 339.463 338 334z"/>
<path style="fill:#72b0ee; stroke:none;" d="M932 414L944 414L944 366C944 360.046 942.456 351.675 948.109 347.742C951.245 345.56 955.38 346.001 959 346L980 346L980 334L954 334C948.772 334 943.516 333.512 939.004 336.653C930.649 342.469 932 351.005 932 360L932 414M990 414L1003 414L1003 366C1003 360.461 1001.45 352.477 1006.15 348.434C1009.22 345.79 1013.2 346.006 1017 346L1039 346L1039 334L1013 334C1007.89 334 1002.55 333.476 998.04 336.344C989.973 341.473 990 350.492 990 359L990 414z"/>
<path style="fill:#bad8f7; stroke:none;" d="M996 337L997 338L996 337z"/>
<path style="fill:#a3cbf4; stroke:none;" d="M38 338C39.769 338.779 41.0359 338.912 43 339C41.231 338.221 39.9641 338.088 38 338z"/>
<path style="fill:#a4ccf4; stroke:none;" d="M112 338C113.506 338.683 114.315 338.826 116 339C114.494 338.317 113.685 338.174 112 338z"/>
<path style="fill:#99c6f3; stroke:none;" d="M607 338C608.506 338.683 609.315 338.826 611 339C609.494 338.317 608.685 338.174 607 338z"/>
<path style="fill:#a7cef4; stroke:none;" d="M680 338C681.506 338.683 682.315 338.826 684 339C682.494 338.317 681.685 338.174 680 338z"/>
<path style="fill:#72b0ee; stroke:none;" d="M34 414L47 414L47 370C55.006 381.211 61.1104 394.071 68 406C70.4399 410.225 73.9153 416.407 79.8958 414.218C84.41 412.565 86.7864 405.852 89 402C94.7846 391.935 99.7541 378.158 108 370L108 414L120 414L120 357C120 352.172 122.201 340.915 115.941 339.323C108.56 337.444 105.322 345.94 102.421 351C94.0032 365.683 85.8353 380.564 77 395C70.1347 379.068 59.6483 364.045 51 349C48.2287 344.179 43.1965 334.812 36.3179 340.603C31.9805 344.255 34 354.916 34 360L34 414z"/>
<path style="fill:#92c2f2; stroke:none;" d="M218 339L218 358C220.191 352.778 219 345.632 219 340L232 340C227.783 338.231 222.541 339 218 339z"/>
<path style="fill:#a7cef4; stroke:none;" d="M278 339L278 358C280.02 353.187 280.02 343.813 278 339z"/>
<path style="fill:#94c3f3; stroke:none;" d="M279 339C282.959 340.661 287.737 340 292 340C288.041 338.339 283.263 339 279 339z"/>
<path style="fill:#72b0ee; stroke:none;" d="M602 414L615 414L615 370C622.891 380.862 628.898 393.361 635.579 405C638.009 409.235 640.927 415.66 646.961 414.472C651.941 413.492 654.34 406.905 656.579 403C662.579 392.534 667.737 378.759 676 370L676 414L689 414L689 357C689 351.213 691.151 340.105 682.996 339.167C675.823 338.342 672.903 346.949 670 352C661.762 366.335 654.126 381.208 645 395C638.178 378.701 627.377 363.329 618.579 348C615.85 343.246 610.796 335.149 604.318 340.603C599.98 344.255 602 354.916 602 360L602 414z"/>
<path style="fill:#94c3f3; stroke:none;" d="M784 339C789.463 341.292 797.113 340 803 340L843 340C837.538 337.708 829.887 339 824 339L784 339z"/>
<path style="fill:#d4e7fa; stroke:none;" d="M843 339L843 353C844.667 349.028 844.667 342.972 843 339z"/>
<path style="fill:#72b0ee; stroke:none;" d="M219 340L219 358L201 358L201 371L219 371L219 414L232 414L232 371L255 371L255 358L232 358L232 340L219 340M279 340L279 358L261 358L261 371L279 371L279 414L292 414L292 371L315 371L315 358L292 358L292 340L279 340M795 370L795 383L819 383C821.917 383 826.118 382.317 828.682 384.028C832.597 386.64 832.312 398.449 827.852 400.397C824.763 401.745 820.293 401 817 401C808.581 401 795.899 403.367 788.015 400.258C784.852 399.01 782.832 396.295 782.228 392.999C780.569 383.941 781.875 373.206 782.004 364C782.06 360.006 782.563 356.209 786.109 353.742C790.518 350.674 797.909 352 803 352L843 352L843 340L797 340C790.009 340 781.842 338.654 776.043 343.394C769.617 348.647 770 355.454 770 363L770 388C770 392.814 769.271 398.372 770.854 402.996C772.549 407.946 777.044 411.47 782 412.812C794.914 416.307 810.706 414 824 414C828.669 414 835.717 415.286 839.941 412.972C843.782 410.869 843.972 406.89 843.999 403C844.05 395.669 844.038 388.332 843.999 381C843.981 377.493 844.187 373.267 840.772 371.179C837.119 368.946 831.097 370 827 370L795 370z"/>
<path style="fill:#bddaf7; stroke:none;" d="M993 340L994 341L993 340z"/>
<path style="fill:#85bbf0; stroke:none;" d="M120 342L120 414C122.085 409.031 121 402.35 121 397L121 361C121 355.113 122.292 347.462 120 342z"/>
<path style="fill:#ecf4fd; stroke:none;" d="M33 345L33 414C35.0851 409.031 34 402.35 34 397L34 363C34 357.381 35.1889 350.216 33 345z"/>
<path style="fill:#bfdbf7; stroke:none;" d="M617 346L618 347L617 346z"/>
<path style="fill:#a6cdf4; stroke:none;" d="M990.333 346.667C990.278 346.722 990.222 347.778 990.667 347.333C990.722 347.278 990.778 346.222 990.333 346.667z"/>
<path style="fill:#94c3f3; stroke:none;" d="M1008 346C1016.37 349.511 1029.92 347 1039 347C1030.63 343.489 1017.08 346 1008 346z"/>
<path style="fill:#7db6f0; stroke:none;" d="M931 347L931 414C932.981 409.28 932 403.08 932 398L932 365C932 359.381 933.189 352.216 931 347z"/>
<path style="fill:#e6f1fc; stroke:none;" d="M989 350L989 414C990.981 409.28 990 403.08 990 398L990 367C990 361.65 991.085 354.969 989 350z"/>
<path style="fill:#cae1f9; stroke:none;" d="M1003 350L1003 414C1004.98 409.28 1004 403.08 1004 398L1004 367C1004 361.65 1005.09 354.969 1003 350z"/>
<path style="fill:#a5cdf4; stroke:none;" d="M944 351L944 414C946.085 409.031 945 402.35 945 397L945 366C945 361.191 945.875 355.469 944 351z"/>
<path style="fill:#94c3f3; stroke:none;" d="M787 352C792.216 354.189 799.381 353 805 353L843 353C837.784 350.811 830.619 352 825 352L787 352z"/>
<path style="fill:#bddaf7; stroke:none;" d="M621 353L622 354L621 353z"/>
<path style="fill:#8cbef1; stroke:none;" d="M769 354L769 399C770.661 395.041 770 390.26 770 386L770 365C770 361.298 770.441 357.435 769 354z"/>
<path style="fill:#bddaf7; stroke:none;" d="M54 355L55 356L54 355M99 356L100 357L99 356z"/>
<path style="fill:#dbebfb; stroke:none;" d="M145 357C153.128 360.411 166.186 358 175 358C166.872 354.589 153.814 357 145 357M201 357C205.974 359.087 212.638 358 218 358C213.026 355.913 206.362 357 201 357M232 357C238.687 359.806 248.767 358 256 358C249.313 355.194 239.233 357 232 357M261 357C265.974 359.087 272.638 358 278 358C273.026 355.913 266.362 357 261 357M292 357C298.687 359.806 308.767 358 316 358C309.313 355.194 299.233 357 292 357M344 357C350.928 359.907 361.503 358 369 358C362.072 355.093 351.497 357 344 357M416 357C423.409 360.109 434.975 358 443 358C435.591 354.891 424.025 357 416 357M469 357C473.217 358.769 478.459 358 483 358C478.783 356.231 473.541 357 469 357z"/>
<path style="fill:#c1dcf7; stroke:none;" d="M513 357C514.248 357.685 514.548 357.749 516 358C514.752 357.315 514.451 357.251 513 357z"/>
<path style="fill:#dbebfb; stroke:none;" d="M547 357C551.471 358.876 557.183 358 562 358C557.529 356.124 551.817 357 547 357M718 357C721.959 358.661 726.74 358 731 358L757 358C753.042 356.339 748.26 357 744 357L718 357z"/>
<path style="fill:#97c5f3; stroke:none;" d="M782 357L782 396C783.441 392.565 783 388.702 783 385C783 376.729 785.206 364.639 782 357z"/>
<path style="fill:#dbebfb; stroke:none;" d="M856 357C859.959 358.661 864.737 358 869 358C865.041 356.339 860.263 357 856 357M905 357C908.959 358.661 913.737 358 918 358C914.041 356.339 909.264 357 905 357M950 357C958.367 360.511 971.924 358 981 358C972.633 354.489 959.076 357 950 357M1009 357C1017.13 360.411 1030.19 358 1039 358C1030.87 354.589 1017.81 357 1009 357z"/>
<path style="fill:#c4def8; stroke:none;" d="M144 358L144 370C145.512 366.396 145.512 361.604 144 358z"/>
<path style="fill:#72b0ee; stroke:none;" d="M145 358L145 370L166 370C169.612 370.006 173.733 369.712 176.867 371.858C183.281 376.252 183.697 396.947 175.895 400.258C173.21 401.397 169.846 400.999 167 401C161.681 401.002 155.178 402.004 150.005 400.682C146.797 399.862 143.502 396.745 145.238 393.214C146.624 390.392 150.135 389.392 153 389.105C159.882 388.417 167.084 389 174 389L174 377C164.394 377 149.741 374.266 141.004 378.688C128.188 385.176 129.062 405.11 141 411.91C145.284 414.35 150.251 414 155 414C163.004 414.001 171.11 414.496 179 412.901C194.309 409.807 193.02 394.219 193 382C192.989 375.446 192.806 368.099 187.811 363.214C178.311 353.923 157.176 358 145 358z"/>
<path style="fill:#bddaf7; stroke:none;" d="M178.667 358.333C178.222 358.778 179.278 358.722 179.333 358.667C179.778 358.222 178.722 358.278 178.667 358.333z"/>
<path style="fill:#c8e0f9; stroke:none;" d="M200 358L200 371C201.591 367.209 201.591 361.791 200 358z"/>
<path style="fill:#a9cff4; stroke:none;" d="M255 358L255 371C256.591 367.209 256.591 361.791 255 358z"/>
<path style="fill:#deecfb; stroke:none;" d="M260 358L260 371C261.591 367.209 261.591 361.791 260 358z"/>
<path style="fill:#94c3f3; stroke:none;" d="M315 358L315 371C316.591 367.209 316.591 361.791 315 358z"/>
<path style="fill:#72b0ee; stroke:none;" d="M344 358L344 371L362 371C364.974 371.006 368.327 370.716 370.852 372.603C374.484 375.319 373.998 379.976 374 384L374 414L387 414L387 382C386.999 373.299 386.455 364.922 377.999 360.09C369.25 355.09 353.802 358 344 358M441 414L441 401L423 400.999C420.061 400.984 416.736 401.173 414.279 399.258C411.147 396.817 411.049 392.619 411.004 389C410.923 382.475 409.482 373.671 417.005 370.742C422.595 368.566 435.232 368.834 440.996 370.434C444.483 371.401 448.464 374.998 446.149 378.852C444.411 381.745 441.005 381.939 438 381.995C431.338 382.12 424.663 382 418 382L418 395C428.056 395 441.736 397.251 450.999 392.544C462.076 386.916 463.526 368.093 452.907 361.225C445.083 356.164 433.847 358 425 358C420.771 358 416.166 357.509 412 358.343C397.106 361.327 399 378.608 399 390C399 396.399 398.564 402.839 403.225 407.895C411.924 417.334 429.461 414 441 414z"/>
<path style="fill:#d4e7fa; stroke:none;" d="M446.667 358.333C446.222 358.778 447.278 358.722 447.333 358.667C447.778 358.222 446.722 358.278 446.667 358.333z"/>
<path style="fill:#b4d5f6; stroke:none;" d="M469 358L469 409C470.769 404.785 470 399.536 470 395L470 371C470 366.74 470.661 361.959 469 358z"/>
<path style="fill:#72b0ee; stroke:none;" d="M470 358L470 399C470 403.425 468.557 411.387 474.059 413.164C478.337 414.545 482.244 410.684 484.985 407.981C493.041 400.041 499.994 391.011 508 383L508 402C508.005 405.066 507.565 408.931 509.742 411.427C515.03 417.488 525.576 410.173 529.999 406.535C544.524 394.59 554.963 375.153 562 358C557.843 358 551.026 356.708 547.39 359.028C543.793 361.323 542.071 367.432 539.988 371C534.847 379.806 529.333 389.866 521 396C521 386.667 521.063 377.332 520.999 368C520.974 364.387 520.969 360.107 516.941 358.619C511.719 356.689 507.875 361.669 504.831 365.004C497.549 372.982 490.606 381.33 483 389L483 358L470 358z"/>
<path style="fill:#bddaf7; stroke:none;" d="M666 358L667 359L666 358z"/>
<path style="fill:#9fc9f3; stroke:none;" d="M714.667 358.333C714.222 358.778 715.278 358.722 715.333 358.667C715.778 358.222 714.722 358.278 714.667 358.333z"/>
<path style="fill:#72b0ee; stroke:none;" d="M757 414L757 401L731 401C727.277 401 722.486 401.722 719.109 399.821C712.659 396.19 712.542 375.597 719.059 372.028C722.404 370.196 727.325 371 731 371L757 371L757 358L727 358C721.716 358 715.812 357.493 711.004 360.14C707.561 362.035 704.74 365.388 703.228 369C701.533 373.052 702 377.708 702 382C702 392.198 700.149 404.43 710.015 410.867C715.521 414.458 721.718 414 728 414L757 414z"/>
<path style="fill:#bfdbf7; stroke:none;" d="M757 358L757 371C758.591 367.209 758.591 361.791 757 358z"/>
<path style="fill:#d5e8fa; stroke:none;" d="M855 358L855 390C856.328 386.834 856 383.419 856 380C856 373.314 857.599 364.194 855 358z"/>
<path style="fill:#72b0ee; stroke:none;" d="M856 358C856 375.86 850.121 405.12 872 412.401C879.007 414.733 886.733 414 894 414C899.815 414 912.025 416.312 916.258 411.427C919.381 407.823 918 400.415 918 396L918 358L905 358L905 401C896.829 401 884.44 403.308 877.004 399.543C864.167 393.045 869 369.955 869 358L856 358z"/>
<path style="fill:#daeafa; stroke:none;" d="M869 358L869 393C870.441 389.565 870 385.702 870 382C870 374.784 871.802 364.678 869 358z"/>
<path style="fill:#c6dff9; stroke:none;" d="M904 358L904 400C907.407 391.882 905 378.797 905 370C905 366.017 905.552 361.699 904 358z"/>
<path style="fill:#eaf3fc; stroke:none;" d="M918 358L918 408C919.769 403.785 919 398.536 919 394L919 371C919 366.74 919.661 361.959 918 358z"/>
<path style="fill:#72b0ee; stroke:none;" d="M950 358L950 371L980 371L980 358L950 358z"/>
<path style="fill:#94c3f3; stroke:none;" d="M980 358L980 371C981.591 367.209 981.591 361.791 980 358z"/>
<path style="fill:#eaf3fc; stroke:none;" d="M1008 358L1008 371C1009.59 367.209 1009.59 361.791 1008 358z"/>
<path style="fill:#72b0ee; stroke:none;" d="M1009 358L1009 371L1039 371L1039 358L1009 358z"/>
<path style="fill:#b9d8f6; stroke:none;" d="M1039 358L1039 371C1040.59 367.209 1040.59 361.791 1039 358z"/>
<path style="fill:#bad8f7; stroke:none;" d="M625 360L626 361L625 360z"/>
<path style="fill:#b6d6f6; stroke:none;" d="M405 361L406 362L405 361z"/>
<path style="fill:#bbd9f7; stroke:none;" d="M58 362L59 363L58 362z"/>
<path style="fill:#abd0f5; stroke:none;" d="M521 362L521 386C521 389.516 520.214 393.565 523 396C520.461 385.334 525.187 371.977 521 362z"/>
<path style="fill:#bbd9f7; stroke:none;" d="M95 363L96 364L95 363z"/>
<path style="fill:#b2d4f6; stroke:none;" d="M506 363L507 364L506 363M559 363L560 364L559 363z"/>
<path style="fill:#bbd9f7; stroke:none;" d="M662 365L663 366L662 365z"/>
<path style="fill:#b9d8f6; stroke:none;" d="M704 366L705 367L704 366z"/>
<path style="fill:#b7d7f6; stroke:none;" d="M629 367L630 368L629 367z"/>
<path style="fill:#b8d7f6; stroke:none;" d="M62 369L63 370L62 369z"/>
<path style="fill:#b2d4f6; stroke:none;" d="M556 369L557 370L556 369z"/>
<path style="fill:#dbebfb; stroke:none;" d="M794 369C798.469 370.875 804.191 370 809 370L838 370C833.531 368.125 827.809 369 823 369L794 369z"/>
<path style="fill:#c4def8; stroke:none;" d="M47 370L47 414C48.4412 410.565 48 406.702 48 403L48 382C48.0015 378.044 48.9895 373.441 47 370z"/>
<path style="fill:#b8d7f6; stroke:none;" d="M91 370L92 371L91 370z"/>
<path style="fill:#8ec0f1; stroke:none;" d="M106 370C109.257 383.682 107 399.961 107 414C108.552 410.301 108 405.983 108 402L108 381C108 377.293 108.955 372.582 106 370z"/>
<path style="fill:#b8d7f6; stroke:none;" d="M145 370C153.128 373.411 166.186 371 175 371C166.872 367.589 153.814 370 145 370z"/>
<path style="fill:#9ac6f3; stroke:none;" d="M386.333 370.667C386.278 370.722 386.222 371.778 386.667 371.333C386.722 371.278 386.778 370.222 386.333 370.667z"/>
<path style="fill:#98c5f3; stroke:none;" d="M399.333 370.667C399.278 370.722 399.222 371.778 399.667 371.333C399.722 371.278 399.778 370.222 399.333 370.667z"/>
<path style="fill:#b8d7f6; stroke:none;" d="M416 370C423.409 373.109 434.975 371 443 371C435.591 367.891 424.025 370 416 370z"/>
<path style="fill:#b5d6f6; stroke:none;" d="M540 370L541 371L540 370z"/>
<path style="fill:#add1f6; stroke:none;" d="M615 370L615 414C616.441 410.565 616 406.702 616 403L616 382C616 378.017 616.552 373.699 615 370z"/>
<path style="fill:#a4ccf4; stroke:none;" d="M674 370C677.257 383.682 675 399.961 675 414C676.552 410.301 676 405.983 676 402L676 381C676 377.293 676.955 372.582 674 370z"/>
<path style="fill:#9dc8f3; stroke:none;" d="M794 370L794 383C795.591 379.209 795.591 373.791 794 370z"/>
<path style="fill:#bddaf7; stroke:none;" d="M177 371L178 372L177 371z"/>
<path style="fill:#9ec9f3; stroke:none;" d="M192 371L192 374C192.696 372.446 192.696 372.554 192 371z"/>
<path style="fill:#dbebfb; stroke:none;" d="M201 371C205.974 373.087 212.638 372 218 372C213.026 369.913 206.362 371 201 371z"/>
<path style="fill:#92c2f2; stroke:none;" d="M218 371L218 414C219.552 410.301 219 405.983 219 402C219 392.94 221.507 379.357 218 371z"/>
<path style="fill:#dbebfb; stroke:none;" d="M232 371C238.687 373.806 248.767 372 256 372C249.313 369.194 239.233 371 232 371M261 371C265.974 373.087 272.638 372 278 372C273.026 369.913 266.362 371 261 371z"/>
<path style="fill:#a7cef4; stroke:none;" d="M278 371L278 414C279.552 410.301 279 405.983 279 402C279 392.94 281.507 379.357 278 371z"/>
<path style="fill:#dbebfb; stroke:none;" d="M292 371C298.687 373.806 308.767 372 316 372C309.313 369.194 299.233 371 292 371M344 371C351.409 374.109 362.975 372 371 372C363.591 368.891 352.025 371 344 371z"/>
<path style="fill:#b5d6f6; stroke:none;" d="M555 371L556 372L555 371z"/>
<path style="fill:#dbebfb; stroke:none;" d="M718 371C721.959 372.661 726.74 372 731 372L757 372C753.042 370.339 748.26 371 744 371L718 371M950 371C958.367 374.511 971.924 372 981 372C972.633 368.489 959.076 371 950 371M1009 371C1017.13 374.411 1030.19 372 1039 372C1030.87 368.589 1017.81 371 1009 371z"/>
<path style="fill:#b8d7f6; stroke:none;" d="M105 372L106 373L105 372z"/>
<path style="fill:#f3f8fd; stroke:none;" d="M292 372L292 414C295.407 405.882 293 392.797 293 384C293 380.017 293.552 375.699 292 372z"/>
<path style="fill:#b8d7f6; stroke:none;" d="M658 372L659 373L658 372z"/>
<path style="fill:#d2e6f9; stroke:none;" d="M387 373L387 414C390.306 406.121 388 393.534 388 385C388 381.017 388.552 376.699 387 373z"/>
<path style="fill:#c4def8; stroke:none;" d="M398 373L398 396C400.284 390.557 400.284 378.443 398 373z"/>
<path style="fill:#d2e6f9; stroke:none;" d="M460 373L460 378C460.83 375.969 460.83 375.03 460 373z"/>
<path style="fill:#bddaf7; stroke:none;" d="M497 373L498 374L497 373z"/>
<path style="fill:#deedfb; stroke:none;" d="M373 374L373 414C374.552 410.301 374 405.983 374 402C374 393.729 376.206 381.639 373 374z"/>
<path style="fill:#bedbf7; stroke:none;" d="M411 374L411 396C413.219 390.713 413.219 379.287 411 374z"/>
<path style="fill:#b4d5f6; stroke:none;" d="M633 374L634 375L633 374z"/>
<path style="fill:#b6d6f6; stroke:none;" d="M672 374L673 375L672 374z"/>
<path style="fill:#daeafa; stroke:none;" d="M701 374L701 396C703.219 390.713 703.219 379.287 701 374z"/>
<path style="fill:#d6e8fa; stroke:none;" d="M715 374L715 397C717.284 391.557 717.284 379.443 715 374z"/>
<path style="fill:#add1f6; stroke:none;" d="M447 375L447 378C447.696 376.446 447.696 376.554 447 375z"/>
<path style="fill:#dbebfb; stroke:none;" d="M149 376C155.928 378.907 166.503 377 174 377C167.072 374.093 156.497 376 149 376z"/>
<path style="fill:#84baf0; stroke:none;" d="M180 376L180 396C182.087 391.027 182.087 380.973 180 376z"/>
<path style="fill:#cee4f9; stroke:none;" d="M174 377L174 389C175.512 385.396 175.512 380.604 174 377z"/>
<path style="fill:#b6d6f6; stroke:none;" d="M101 379L102 380L101 379z"/>
<path style="fill:#b5d6f6; stroke:none;" d="M654 379L655 380L654 379z"/>
<path style="fill:#b6d6f6; stroke:none;" d="M534 380L535 381L534 380z"/>
<path style="fill:#bbd9f7; stroke:none;" d="M444 381L445 382L444 381z"/>
<path style="fill:#d1e5f9; stroke:none;" d="M459.333 381.667C459.278 381.722 459.222 382.778 459.667 382.333C459.722 382.278 459.778 381.222 459.333 381.667z"/>
<path style="fill:#b4d5f6; stroke:none;" d="M668 381L669 382L668 381z"/>
<path style="fill:#94c3f3; stroke:none;" d="M417 382L417 395C418.591 391.209 418.591 385.791 417 382z"/>
<path style="fill:#b8d7f6; stroke:none;" d="M489 382L490 383L489 382z"/>
<path style="fill:#bcd9f7; stroke:none;" d="M532 383L533 384L532 383z"/>
<path style="fill:#b6d6f6; stroke:none;" d="M548 383L549 384L548 383z"/>
<path style="fill:#b8d7f6; stroke:none;" d="M794 383C797.959 384.661 802.74 384 807 384L830 384C826.041 382.339 821.26 383 817 383L794 383z"/>
<path style="fill:#a6cdf4; stroke:none;" d="M830 384L830 400C831.812 395.681 831.812 388.319 830 384z"/>
<path style="fill:#b4d5f6; stroke:none;" d="M97 386L98 387L97 386M650 386L651 387L650 386z"/>
<path style="fill:#b8d7f6; stroke:none;" d="M149 389C155.928 391.907 166.503 390 174 390C167.072 387.093 156.497 389 149 389z"/>
<path style="fill:#b9d8f6; stroke:none;" d="M544 389L545 390L544 389z"/>
<path style="fill:#bddaf7; stroke:none;" d="M131 391L131 394C131.696 392.446 131.696 392.554 131 391z"/>
<path style="fill:#b7d7f6; stroke:none;" d="M145 391L146 392L145 391z"/>
<path style="fill:#bddaf7; stroke:none;" d="M499 391L500 392L499 391z"/>
<path style="fill:#d9eafa; stroke:none;" d="M144 393L144 398C144.83 395.969 144.83 395.03 144 393z"/>
<path style="fill:#b2d4f6; stroke:none;" d="M541 393L542 394L541 393z"/>
<path style="fill:#97c5f3; stroke:none;" d="M131 394L131 397C131.696 395.446 131.696 395.554 131 394z"/>
<path style="fill:#9cc8f3; stroke:none;" d="M443 394C444.506 394.683 445.315 394.826 447 395C445.494 394.317 444.685 394.174 443 394z"/>
<path style="fill:#b9d8f6; stroke:none;" d="M856 394L856 397C856.696 395.446 856.696 395.554 856 394z"/>
<path style="fill:#c1dcf7; stroke:none;" d="M131 397L131 400C131.696 398.446 131.696 398.554 131 397z"/>
<path style="fill:#b4d5f6; stroke:none;" d="M537 398L538 399L537 398z"/>
<path style="fill:#bad8f7; stroke:none;" d="M178 399L179 400L178 399z"/>
<path style="fill:#b4d5f6; stroke:none;" d="M717 399L718 400L717 399z"/>
<path style="fill:#cfe4f9; stroke:none;" d="M147.667 400.333C147.222 400.778 148.278 400.722 148.333 400.667C148.778 400.222 147.722 400.278 147.667 400.333z"/>
<path style="fill:#b8d7f6; stroke:none;" d="M719 400C722.959 401.661 727.74 401 732 401L757 401C753.042 399.339 748.26 400 744 400L719 400M787 400C791.215 401.769 796.465 401 801 401L830 401C825.785 399.231 820.536 400 816 400L787 400M878 400C885.409 403.109 896.976 401 905 401C897.591 397.891 886.025 400 878 400z"/>
<path style="fill:#9dc8f3; stroke:none;" d="M441 401L441 414C442.591 410.209 442.591 404.791 441 401z"/>
<path style="fill:#b9d8f6; stroke:none;" d="M490 401L491 402L490 401z"/>
<path style="fill:#bfdbf7; stroke:none;" d="M757 401L757 414C758.591 410.209 758.591 404.791 757 401z"/>
<path style="fill:#b7d7f6; stroke:none;" d="M189 406L190 407L189 406z"/>
<path style="fill:#bddaf7; stroke:none;" d="M528 407L529 408L528 407z"/>
<path style="fill:#bfdbf7; stroke:none;" d="M136 408L137 409L136 408z"/>
<path style="fill:#bddaf7; stroke:none;" d="M137 409L138 410L137 409M775 409L776 410L775 409z"/>
<path style="fill:#b9d8f6; stroke:none;" d="M185 410L186 411L185 410z"/>
<path style="fill:#b7d7f6; stroke:none;" d="M709 410L710 411L709 410z"/>
<path style="fill:#b4d5f6; stroke:none;" d="M481 411L482 412L481 411z"/>
<path style="fill:#bddaf7; stroke:none;" d="M651 411L652 412L651 411z"/>
<path style="fill:#bcd9f7; stroke:none;" d="M842 411L843 412L842 411z"/>
<path style="fill:#b2d4f6; stroke:none;" d="M480 412L481 413L480 412z"/>
<path style="fill:#b3d4f6; stroke:none;" d="M915 412L916 413L915 412z"/>
<path style="fill:#92c2f2; stroke:none;" d="M175 413C176.506 413.683 177.315 413.826 179 414C177.494 413.317 176.685 413.174 175 413z"/>
<path style="fill:#b0d3f6; stroke:none;" d="M412.667 413.333C412.222 413.778 413.278 413.722 413.333 413.667C413.778 413.222 412.722 413.278 412.667 413.333M477.667 413.333C477.222 413.778 478.278 413.722 478.333 413.667C478.778 413.222 477.722 413.278 477.667 413.333z"/>
<path style="fill:#bddaf7; stroke:none;" d="M516.667 413.333C516.222 413.778 517.278 413.722 517.333 413.667C517.778 413.222 516.722 413.278 516.667 413.333z"/>
<path style="fill:#b4d5f6; stroke:none;" d="M783 413C784.248 413.685 784.548 413.749 786 414C784.752 413.315 784.451 413.251 783 413z"/>
<path style="fill:#9dc8f3; stroke:none;" d="M875.667 413.333C875.222 413.778 876.278 413.722 876.333 413.667C876.778 413.222 875.722 413.278 875.667 413.333z"/>
<path style="fill:#9ac7f3; stroke:none;" d="M74.6667 414.333C74.2222 414.778 75.2778 414.722 75.3333 414.667C75.7778 414.222 74.7222 414.278 74.6667 414.333z"/>
<path style="fill:#a0caf3; stroke:none;" d="M642.667 414.333C642.222 414.778 643.278 414.722 643.333 414.667C643.778 414.222 642.722 414.278 642.667 414.333z"/>
</svg>
