<?xml version="1.0" standalone="yes"?>
<svg xmlns="http://www.w3.org/2000/svg" width="1060" height="466">
<path style="fill:#ffffff; stroke:none;" d="M0 0L0 466L1060 466L1060 0L0 0z"/>
<path style="fill:#71afed; stroke:none;" d="M469 269L469 192L498 192C501.872 192 507.231 191.072 510.867 192.603C514.508 194.137 515.819 199.101 518.329 201.907C522.781 206.88 529.325 209.97 536 209.971C563.267 209.972 570.502 170.707 544 162.224C534.846 159.294 524.786 161.907 518.329 169.093C515.831 171.873 514.368 176.841 510.787 178.397C507.213 179.949 501.821 179 498 179L469 179L469 150C469 146.502 468.106 141.388 470.028 138.274C471.544 135.818 474.74 134.83 476.985 133.201C479.965 131.039 482.338 128.237 484.084 125C498.359 98.5382 458.854 74.8317 442.108 100.004C440.308 102.71 438.889 105.784 438.329 109C437.037 116.422 439.696 125.558 445.105 130.815C448.983 134.583 455.397 135.945 455.941 142.015C456.882 152.504 456 163.467 456 174L456 239L456 265C456 268.99 455.169 274.181 456.742 277.941C458.555 282.273 463.022 281.992 467 282L493 282C496.409 281.998 500.934 282.614 503.397 279.682C506.475 276.017 504.411 270.479 499.981 269.318C490.785 266.908 478.507 269 469 269M603 190.638C593.39 193.416 585.804 204.196 579 211L540 250C534.077 255.923 525.754 261.975 521.417 269.17C519.284 272.709 518.667 277.072 517.576 281C515.735 287.62 512.624 295.129 512.228 302C511.945 306.928 515.014 310.258 520.001 309.656C527.133 308.795 534.141 305.433 541 303.424C545.778 302.025 551.809 301.167 556 298.411C561.245 294.963 565.58 289.42 570 285C578.987 276.013 587.814 266.823 597 258.039C607.466 248.032 621.048 238.344 628.867 226C640.237 208.048 624.146 184.526 603 190.638z"/>
<path style="fill:#ffffff; stroke:none;" d="M586 222L538 270C540.636 273.742 546.916 282.793 552 282.793C554.422 282.793 556.398 280.502 558 278.98C562.436 274.767 566.674 270.326 571 266L592 245C594.222 242.773 598.793 239.503 598.793 236C598.793 230.916 589.742 224.636 586 222z"/>
<path style="fill:#71afed; stroke:none;" d="M931 414L945 414L945 366C945 361.247 943.239 352.04 947.318 348.603C949.873 346.451 953.904 347.001 957 347L981 347L981 333C968.892 333 949.444 329.368 939.004 336.653C930.325 342.708 931 351.578 931 361L931 414M990 414L1003 414L1003 366C1003 360.754 1001.33 352.204 1006.15 348.603C1009.13 346.374 1013.5 347 1017 347L1039 347L1039 333C1027.02 333 1008.43 329.457 998.04 336.329C989.43 342.025 990 350.857 990 360L990 414M325 334L325 414L338 414L338 334L325 334M34 414L47 414L47 370C54.1164 379.965 59.6666 391.354 65.7191 402C67.9829 405.982 70.3828 412.711 75.0432 414.381C81.0283 416.527 84.306 410.225 86.7191 406C93.2594 394.548 100.925 383.186 106 371C107.521 376.146 107 381.661 107 387L107 414L121 414L121 357C121 351.213 123.062 339.879 114.996 338.542C108.437 337.456 104.986 346.526 102.421 351C94.0032 365.683 85.8353 380.564 77 395C70.1347 379.068 59.6483 364.045 51 349C48.5001 344.651 44.6332 335.662 38.0586 339.043C31.9819 342.168 34 352.405 34 358L34 414M602 414L616 414L616 371C622.422 381.492 628.303 392.328 634.421 403C636.547 406.707 638.759 412.786 643.093 414.381C648.6 416.408 651.982 410.984 654.28 406.999C660.829 395.646 670.045 383.499 674 371C675.521 376.146 675 381.661 675 387L675 414L689 414L689 356C689 350.332 690.781 338.457 682.003 338.457C675.794 338.457 672.556 347.553 670 352C661.769 366.322 654.095 381.211 645 395C638.301 378.995 627.748 364.06 619.15 349C616.448 344.267 612.013 334.835 605.148 339.746C600.004 343.426 602 353.503 602 359L602 414M218 339L218 358L201 358L201 371L218 371L218 414L232 414L232 371L256 371L256 358L232 358L232 339L218 339M278 339L278 358L261 358L261 371L278 371L278 414L292 414L292 371L316 371L316 358L292 358L292 339L278 339M794 370L794 383L830 383L830 401L799 401C794.938 401 789.637 401.811 786.148 399.258C782.764 396.781 783.008 392.758 783 389L783 364C783.007 360.46 782.627 356.113 786.148 354.028C790.378 351.523 798.244 353 803 353L843 353L843 339L798 339C790.354 339 782.364 338.195 776.043 343.394C764.719 352.708 769 373.975 769 387C769 392.43 768.652 397.865 770.765 402.996C772.886 408.148 777.601 412.034 783 413.442C787.717 414.672 793.165 414 798 414L826 414C830.425 414 837.086 415.212 840.852 412.397C844.221 409.878 843.992 405.772 844 402C844.015 394.67 844.098 387.33 843.996 380C843.951 376.746 843.885 373.083 840.772 371.179C837.119 368.946 831.097 370 827 370L794 370M145 358L145 370L166 370C169.576 370.006 173.767 369.684 176.852 371.858C181.976 375.47 180.819 389.416 179.772 394.985C179.324 397.362 178.18 399.273 175.891 400.258C173.218 401.407 169.836 400.999 167 401C161.681 401.002 155.178 402.005 150.005 400.682C147.117 399.944 143.947 397.364 145.176 394.043C146.195 391.289 149.298 389.722 152 389.228C158.957 387.958 166.934 389 174 389L174 377C164.214 377 148.669 374.058 140.015 379.228C127.89 386.472 129.154 405.163 141 411.91C145.284 414.35 150.251 414 155 414C162.376 414 170.756 415.096 178 413.62C193.659 410.432 193 395.676 193 383C193 375.728 193.474 368.721 187.812 363.214C178.271 353.934 157.206 358 145 358M344 358L344 371L362 371C364.974 371.006 368.327 370.716 370.852 372.603C374.484 375.319 373.998 379.976 374 384L374 414L387 414L387 383C387 373.779 387.123 365.303 377.999 360.09C369.25 355.09 353.803 358 344 358M442 414L442 401L424 401C420.788 400.995 416.978 401.361 414.279 399.258C411.147 396.817 411.049 392.619 411.004 389C410.923 382.475 409.482 373.671 417.005 370.742C422.488 368.607 436.51 368.558 441.981 370.742C445.485 372.142 448.18 376.274 445.392 379.682C443.358 382.169 439.895 381.979 437 381.999C430.334 382.045 423.666 382 417 382L417 395C426.784 395 441.081 397.629 450 393.16C461.363 387.468 464.375 368.642 452.907 361.225C445.299 356.304 434.599 358 426 358C421.444 358 416.492 357.472 412 358.34C396.834 361.271 399 378.488 399 390C399 396.403 398.567 402.833 403.225 407.895C412.165 417.612 430.081 414 442 414M469 358L469 401C469.009 406.146 469.243 413.174 476 413.663C480.752 414.007 484.097 409.101 486.925 405.999C493.938 398.309 500.638 390.367 508 383L508 402C508.005 405.066 507.565 408.931 509.742 411.427C515.034 417.493 525.571 410.166 530 406.535C544.487 394.66 555.305 375.257 562 358C557.843 358 551.026 356.708 547.39 359.028C543.853 361.284 541.876 367.456 539.85 371C535.028 379.432 529.814 389.02 522 395C522 386.334 522.059 377.666 521.999 369C521.97 364.814 521.595 360.246 516.981 358.619C511.718 356.763 507.779 361.56 504.715 365.004C497.557 373.05 490.584 381.353 483 389L483 358L469 358M757 414L757 401L731 401C727.202 401 722.539 401.664 719.109 399.682C712.71 395.984 712.49 375.625 719.059 372.028C722.404 370.196 727.325 371 731 371L757 371L757 358L726 358C720.997 358 715.476 357.314 711.004 360.009C707.616 362.051 704.756 365.349 703.228 369C701.533 373.052 702 377.708 702 382C702 392.085 700.125 404.689 710.015 411.005C715.473 414.491 721.816 414 728 414L757 414M856 358C856 376.988 850.123 406.425 874 413.211C879.935 414.898 886.885 414 893 414C898.81 414 912.096 416.459 916.258 411.566C919.374 407.902 918 400.461 918 396L918 358L905 358L905 401C896.829 401 884.44 403.308 877.004 399.543C864.167 393.045 869 369.955 869 358L856 358M950 358L950 371L981 371L981 358L950 358M1009 358L1009 371L1039 371L1039 358L1009 358z"/>
</svg>
