<?xml version="1.0" standalone="yes"?>
<svg xmlns="http://www.w3.org/2000/svg" width="512" height="512">
<path style="fill:#6d6967; stroke:none;" d="M0 0L0 512L65 512C72.4231 512 85.2886 514.462 91.9606 510.972C96.79 508.446 100.158 502.186 103.424 498C111.175 488.068 118.669 477.234 127.289 468.055C131.733 463.323 138.126 461.55 144 459.2C155.727 454.509 168.759 450.962 179.867 444.945C186.211 441.509 186.243 432.158 191.61 427.603C195.779 424.065 205.819 426 211 426L211 375C211 368.04 212.648 358.578 210.157 352C206.571 342.532 198.248 333.235 192.424 325C183.402 312.241 175.002 299.002 166.333 286C162.268 279.901 155.805 273.004 153.563 266C150.89 257.646 153 245.749 153 237C129.408 232.792 127 208.196 127 189C127 184.238 124.977 173.23 128.603 169.603C130.474 167.732 133.582 168.017 136 168.001L153 168L153 99L153 81C153.001 78.235 152.539 74.8059 154.028 72.3256C155.717 69.5121 159.309 67.8618 162 66.1921L177 56.8079C195.043 45.6261 213.017 34.3287 231 23.0501L248 12.4236C250.338 10.9729 253.125 8.71594 256 8.66049C258.924 8.6041 261.653 10.8453 264 12.3187L281 22.9499C299.314 34.4363 317.711 45.7917 336 57.3187C342.169 61.2065 354.235 65.8107 357.972 72.2099C359.45 74.7405 358.999 78.1933 359 81L359 99L359 168L383 168C383 192.177 389.248 228.099 359 237C359 245.895 361.326 258.633 358.157 267C355.448 274.151 349.224 280.664 345 287L316.333 330C311.672 336.992 305.341 344.236 302.086 352C299.348 358.53 301 368.025 301 375L301 426C306.268 426 316.178 424.086 320.471 427.603C326.319 432.395 325.911 442.028 333.055 445.557C344.204 451.065 356.459 454.783 368 459.4C373.805 461.722 380.258 463.497 384.711 468.105C393.483 477.184 400.719 488.144 408.6 498C411.889 502.113 415.269 508.473 420.039 510.972C426.706 514.464 439.581 512 447 512L512 512L512 0L0 0z"/>
<path style="fill:#d1af99; stroke:none;" d="M255.667 7.33334C255.222 7.77765 256.278 7.72223 256.333 7.66666C256.778 7.22205 255.722 7.27795 255.667 7.33334z"/>
<path style="fill:#ffe3d1; stroke:none;" d="M173 176C186.151 172.248 200.017 166.489 214 168.184C228.522 169.946 241.606 178.874 256 181L256 8C246.429 11.5043 237.618 18.5448 229 23.9499C212.352 34.3914 195.704 44.8402 179 55.1921L162 65.8079C159.047 67.6465 155.304 69.4765 154.318 73.0934C152.742 78.8722 152.381 93.1352 156.318 97.8264C160.719 103.071 170.792 106.078 172.682 113.09C174.287 119.043 173 126.853 173 133L173 176z"/>
<path style="fill:#fdc39f; stroke:none;" d="M256 8L256 181C263.853 180.833 268.993 176.968 276 174.093C282.782 171.309 290.744 169.337 298 168.3C312.076 166.289 325.715 172.374 339 176L339 133C339 126.853 337.713 119.043 339.318 113.09C341.182 106.174 351.251 102.856 355.682 97.7106C359.674 93.0752 359.202 78.8067 357.682 73.0401C356.686 69.2601 353.071 67.4983 350 65.5764L333 54.9499C316.682 44.7154 300.295 34.5891 284 24.3187C275.22 18.785 265.929 11.1431 256 8z"/>
<path style="fill:#bfafa3; stroke:none;" d="M252 9L253 10L252 9z"/>
<path style="fill:#b99f8f; stroke:none;" d="M261 10L262 11L261 10z"/>
<path style="fill:#b1a197; stroke:none;" d="M247 12L248 13L247 12z"/>
<path style="fill:#bfafa3; stroke:none;" d="M244 14L245 15L244 14z"/>
<path style="fill:#b99f8f; stroke:none;" d="M269 15L270 16L269 15z"/>
<path style="fill:#b1a197; stroke:none;" d="M239 17L240 18L239 17z"/>
<path style="fill:#bfafa3; stroke:none;" d="M236 19L237 20L236 19z"/>
<path style="fill:#b99f8f; stroke:none;" d="M277 20L278 21L277 20z"/>
<path style="fill:#b1a197; stroke:none;" d="M231 22L232 23L231 22z"/>
<path style="fill:#bfafa3; stroke:none;" d="M228 24L229 25L228 24z"/>
<path style="fill:#b99f8f; stroke:none;" d="M285 25L286 26L285 25z"/>
<path style="fill:#b1a197; stroke:none;" d="M223 27L224 28L223 27z"/>
<path style="fill:#bfafa3; stroke:none;" d="M220 29L221 30L220 29z"/>
<path style="fill:#b99f8f; stroke:none;" d="M293 30L294 31L293 30z"/>
<path style="fill:#b1a197; stroke:none;" d="M215 32L216 33L215 32z"/>
<path style="fill:#bfafa3; stroke:none;" d="M212 34L213 35L212 34z"/>
<path style="fill:#b99f8f; stroke:none;" d="M301 35L302 36L301 35z"/>
<path style="fill:#b1a197; stroke:none;" d="M207 37L208 38L207 37z"/>
<path style="fill:#bfafa3; stroke:none;" d="M204 39L205 40L204 39z"/>
<path style="fill:#b99f8f; stroke:none;" d="M309 40L310 41L309 40z"/>
<path style="fill:#b1a197; stroke:none;" d="M199 42L200 43L199 42z"/>
<path style="fill:#bfafa3; stroke:none;" d="M196 44L197 45L196 44z"/>
<path style="fill:#b99f8f; stroke:none;" d="M317 45L318 46L317 45z"/>
<path style="fill:#b1a197; stroke:none;" d="M191 47L192 48L191 47z"/>
<path style="fill:#bfafa3; stroke:none;" d="M188 49L189 50L188 49z"/>
<path style="fill:#b99f8f; stroke:none;" d="M325 50L326 51L325 50z"/>
<path style="fill:#b1a197; stroke:none;" d="M183 52L184 53L183 52z"/>
<path style="fill:#bfafa3; stroke:none;" d="M180 54L181 55L180 54z"/>
<path style="fill:#b99f8f; stroke:none;" d="M333 55L334 56L333 55z"/>
<path style="fill:#b1a197; stroke:none;" d="M175 57L176 58L175 57z"/>
<path style="fill:#bfafa3; stroke:none;" d="M172 59L173 60L172 59z"/>
<path style="fill:#b99f8f; stroke:none;" d="M341 60L342 61L341 60z"/>
<path style="fill:#b1a197; stroke:none;" d="M167 62L168 63L167 62z"/>
<path style="fill:#bfafa3; stroke:none;" d="M164 64L165 65L164 64z"/>
<path style="fill:#b99f8f; stroke:none;" d="M349 65L350 66L349 65z"/>
<path style="fill:#b1a197; stroke:none;" d="M159 67L160 68L159 67z"/>
<path style="fill:#bfafa3; stroke:none;" d="M156 69L157 70L156 69z"/>
<path style="fill:#b99f8f; stroke:none;" d="M357 70L358 71L357 70z"/>
<path style="fill:#a79991; stroke:none;" d="M153 71L153 169C155.903 162.081 154 151.48 154 144C154 126.362 154.597 108.607 154.035 91C153.836 84.7547 155.435 76.8026 153 71z"/>
<path style="fill:#cbab97; stroke:none;" d="M358 71L358 169C360.701 162.564 359 152.951 359 146L359 96C359 88.5202 360.903 77.9187 358 71z"/>
<path style="fill:#434343; stroke:none;" d="M154 97L154 178L174 177C170.532 162.432 173 144.951 173 130C173 124.654 174.637 115.967 171.972 111.171C168.826 105.507 159.647 99.8827 154 97z"/>
<path style="fill:#91847a; stroke:none;" d="M155 97L156 98L155 97z"/>
<path style="fill:#796759; stroke:none;" d="M356 97L357 98L356 97z"/>
<path style="fill:#393939; stroke:none;" d="M357 97C351.781 100.752 343.13 105.34 340.028 111.09C337.851 115.125 339 121.557 339 126L339 160C339 163.886 337.46 172.059 340.028 175.258C343.232 179.25 353.465 178 358 178L358 122C358 114.52 359.903 103.919 357 97z"/>
<path style="fill:#be947a; stroke:none;" d="M353 99L354 100L353 99z"/>
<path style="fill:#a8978d; stroke:none;" d="M159 100L160 101L159 100z"/>
<path style="fill:#8d7565; stroke:none;" d="M352 100L353 101L352 100z"/>
<path style="fill:#776f6b; stroke:none;" d="M160 101L161 102L160 101z"/>
<path style="fill:#bba89d; stroke:none;" d="M163 103L164 104L163 103z"/>
<path style="fill:#a98570; stroke:none;" d="M348 103L349 104L348 103z"/>
<path style="fill:#8d817b; stroke:none;" d="M164 104L165 105L164 104z"/>
<path style="fill:#736157; stroke:none;" d="M347 104L348 105L347 104z"/>
<path style="fill:#cab7ab; stroke:none;" d="M167 106L168 107L167 106z"/>
<path style="fill:#b9937b; stroke:none;" d="M344 106L345 107L344 106z"/>
<path style="fill:#9f938b; stroke:none;" d="M168 107L169 108L168 107z"/>
<path style="fill:#897161; stroke:none;" d="M343 107L344 108L343 107z"/>
<path style="fill:#756b65; stroke:none;" d="M169 108L170 109L169 108z"/>
<path style="fill:#bba89d; stroke:none;" d="M172 110L173 111L172 110z"/>
<path style="fill:#a98570; stroke:none;" d="M339 110L340 111L339 110z"/>
<path style="fill:#938981; stroke:none;" d="M128 168C134.928 170.907 145.503 169 153 169C146.072 166.093 135.497 168 128 168z"/>
<path style="fill:#7f79c5; stroke:none;" d="M200.667 168.333C200.222 168.778 201.278 168.722 201.333 168.667C201.778 168.222 200.722 168.278 200.667 168.333z"/>
<path style="fill:#3b42c1; stroke:none;" d="M202 168C203.248 168.685 203.548 168.749 205 169C203.752 168.315 203.452 168.251 202 168z"/>
<path style="fill:#0715bb; stroke:none;" d="M198 169C203.959 171.5 212.564 170 219 170C212.231 166.747 205.139 168.853 198 169z"/>
<path style="fill:#8880c7; stroke:none;" d="M214 168C215.248 168.685 215.548 168.749 217 169C215.752 168.315 215.452 168.251 214 168z"/>
<path style="fill:#6153a5; stroke:none;" d="M296.667 168.333C296.222 168.778 297.278 168.722 297.333 168.667C297.778 168.222 296.722 168.278 296.667 168.333z"/>
<path style="fill:#0513a7; stroke:none;" d="M294 169C299.959 171.5 308.564 170 315 170C308.642 166.62 300.833 168.136 294 169z"/>
<path style="fill:#ab89a3; stroke:none;" d="M311.667 168.333C311.222 168.778 312.278 168.722 312.333 168.667C312.778 168.222 311.722 168.278 311.667 168.333z"/>
<path style="fill:#918176; stroke:none;" d="M359 168C365.687 170.806 375.767 169 383 169C376.313 166.194 366.233 168 359 168z"/>
<path style="fill:#9b8f87; stroke:none;" d="M127 169L127 209C130.206 201.361 128 189.271 128 181C128 177.017 128.552 172.699 127 169z"/>
<path style="fill:#ffe3d1; stroke:none;" d="M128 169C128 192.678 121.509 232.13 154 237C154 246.342 151.737 259.103 154.702 268C157.74 277.114 166.023 286.034 171.333 294C184.014 313.021 197.443 331.624 209.576 351C214.477 358.827 219.877 366.315 225 374C227.303 377.455 229.667 382.777 233.326 384.972C238.658 388.172 249.901 386 256 386L256 325C250.954 325 244.703 325.984 240 323.861C233.439 320.9 228.697 314.486 222 311.854C218.883 310.629 215.283 311 212 311C217.282 307.24 223.216 305.085 229 302.244C232.077 300.733 235.428 298.467 239 298.742C244.965 299.201 249.683 302.944 256 303L256 266C248.812 265.767 247.308 261.332 241.91 257.638C239.253 255.819 235.602 255.7 233.697 252.796C230.224 247.503 235.769 239.832 241 239C243.471 225.689 245.933 211.498 247 198C243.623 202.091 242.219 207.364 239.688 212C235.024 220.54 228.361 228.075 219 231.452C203.078 237.196 183.19 231.15 174.532 216C170.588 209.098 170.953 201.349 168.581 194.059C167.522 190.805 164.817 190.627 162.699 188.416C159.936 185.531 160.412 181.576 161 178L154 178L154 169L128 169z"/>
<path style="fill:#b0a1c9; stroke:none;" d="M196 169L197 170L196 169z"/>
<path style="fill:#5759c2; stroke:none;" d="M197 169L198 170L197 169z"/>
<path style="fill:#7f79c5; stroke:none;" d="M219 169L220 170L219 169z"/>
<path style="fill:#a583a3; stroke:none;" d="M292 169L293 170L292 169z"/>
<path style="fill:#5349a5; stroke:none;" d="M293 169L294 170L293 169M315 169L316 170L315 169z"/>
<path style="fill:#b38da3; stroke:none;" d="M316 169L317 170L316 169z"/>
<path style="fill:#fdc39f; stroke:none;" d="M358 169L358 178L351 178C351.344 181.278 351.951 184.804 349.907 187.698C348.003 190.394 344.557 190.709 343.419 194.109C340.093 204.045 340.227 213.641 332.815 221.996C319.843 236.619 295.514 237.966 281.09 224.699C273.346 217.576 269.706 207.554 266 198C264.163 202.419 266.226 206.489 266.819 211C268.043 220.296 269.287 229.775 271 239C276.288 239.841 281.709 247.478 278.303 252.811C276.398 255.794 272.878 256.253 270.09 257.973C264.625 261.344 263.05 265.771 256 266L256 193C247.667 193.929 246.795 199.795 245.586 207C243.801 217.641 242.352 228.306 241 239C235.336 239.44 230.067 247.1 233.068 252.81C234.7 255.916 238.261 256.173 240.961 257.834C246.956 261.523 248.251 265.909 256 266L256 303C262.412 302.943 267.927 298.673 274 298.769C282.815 298.909 292.695 307.172 301 310C296.989 311.186 292.767 310.752 289 312.803C282.907 316.121 277.729 322.5 271 324.487C266.417 325.84 260.743 325 256 325L256 386C249.879 386 240.817 387.692 235.093 385.397C231.304 383.877 229.142 379.213 227 376C222.074 368.612 216.993 361.341 212 354C210.339 357.959 211 362.74 211 367C211 372.329 209.588 380.12 212.028 385C214.869 390.683 221.331 395.168 226 399.285C232.658 405.158 238.587 411.828 245 417.961C248.065 420.891 252.068 423.417 254.397 427.015C256.927 430.925 256 436.559 256 441L256 473C267.561 469.34 278.615 460.431 289 454.2C292.523 452.086 298.674 449.788 300.397 445.79C302.462 440.996 301 433.152 301 428L301 388C284.602 398.847 271.241 414.588 256 427L256 386C262.256 386 273.276 388.124 278.816 384.972C283.463 382.328 286.414 375.257 289.424 371C297.973 358.911 305.759 346.302 314.001 334C323.844 319.307 333.854 304.719 343.667 290C348.051 283.424 354.349 276.413 357.157 269C360.609 259.885 354.698 248.031 358.603 239.225C360.137 235.767 365.063 234.924 368 233.031C372.225 230.308 375.947 226.312 378.518 222C387.038 207.707 383 184.971 383 169L358 169z"/>
<path style="fill:#95899d; stroke:none;" d="M193 170L194 171L193 170z"/>
<path style="fill:#171d59; stroke:none;" d="M194 170C195.769 170.779 197.036 170.912 199 171C197.231 170.221 195.964 170.088 194 170z"/>
<path style="fill:#212121; stroke:none;" d="M169 190C169.414 199.633 170.888 210.982 176.637 219C187.978 234.817 213.788 237.909 228.961 225.957C240.61 216.78 241.089 196.429 256 192C256 189.253 256.727 185.042 254.972 182.702C251.566 178.16 240.211 176.401 235 174.667C215.087 168.037 194.676 168.983 175 175.757C171.387 177.001 165.561 176.439 162.603 178.988C156.629 184.138 164.394 189.358 169 190z"/>
<path style="fill:#121a88; stroke:none;" d="M216 170C218.052 170.874 219.747 170.953 222 171C219.948 170.126 218.253 170.047 216 170z"/>
<path style="fill:#6d6bc3; stroke:none;" d="M222 170L223 171L222 170z"/>
<path style="fill:#be947a; stroke:none;" d="M288 170L289 171L288 170z"/>
<path style="fill:#27274f; stroke:none;" d="M289.667 170.333C289.222 170.778 290.278 170.722 290.333 170.667C290.778 170.222 289.722 170.278 289.667 170.333z"/>
<path style="fill:#171717; stroke:none;" d="M256 182C256 184.77 255.286 188.931 257.028 191.302C259.897 195.207 264.635 196.226 267.176 201.001C270.95 208.093 272.764 215.789 278.21 221.985C288.712 233.935 307.722 236.254 322 230.121C332.539 225.595 337.941 216.785 340.625 206C341.582 202.155 341.556 197.723 343.032 194.058C344.968 189.253 355.003 186.582 349.972 179.514C347.574 176.144 340.658 176.493 337 175.511C323.25 171.819 310.362 169.662 296 170.015C289.096 170.184 281.372 171.79 275 174.465C268.49 177.197 263.152 180.944 256 182z"/>
<path style="fill:#0f1557; stroke:none;" d="M311 170C313.332 170.984 315.457 170.981 318 171C315.668 170.015 313.543 170.019 311 170z"/>
<path style="fill:#554b8b; stroke:none;" d="M318 170L319 171L318 170z"/>
<path style="fill:#93857b; stroke:none;" d="M187 171C188.248 171.685 188.548 171.749 190 172C188.752 171.315 188.452 171.251 187 171z"/>
<path style="fill:#2f3173; stroke:none;" d="M223.667 171.333C223.222 171.778 224.278 171.722 224.333 171.667C224.778 171.222 223.722 171.278 223.667 171.333z"/>
<path style="fill:#877da1; stroke:none;" d="M225 171L226 172L225 171z"/>
<path style="fill:#c3987c; stroke:none;" d="M283 171L284 172L283 171z"/>
<path style="fill:#56463c; stroke:none;" d="M284.667 171.333C284.222 171.778 285.278 171.722 285.333 171.667C285.778 171.222 284.722 171.278 284.667 171.333z"/>
<path style="fill:#927360; stroke:none;" d="M322.667 171.333C322.222 171.778 323.278 171.722 323.333 171.667C323.778 171.222 322.722 171.278 322.667 171.333z"/>
<path style="fill:#bba89d; stroke:none;" d="M183 172L184 173L183 172z"/>
<path style="fill:#857970; stroke:none;" d="M184 172L185 173L184 172z"/>
<path style="fill:#8c7f76; stroke:none;" d="M228 172L229 173L228 172z"/>
<path style="fill:#ceb9ac; stroke:none;" d="M229 172L230 173L229 172z"/>
<path style="fill:#856957; stroke:none;" d="M280 172L281 173L280 172z"/>
<path style="fill:#927360; stroke:none;" d="M327.667 172.333C327.222 172.778 328.278 172.722 328.333 172.667C328.778 172.222 327.722 172.278 327.667 172.333z"/>
<path style="fill:#c9b5a7; stroke:none;" d="M179 173L180 174L179 173z"/>
<path style="fill:#8c7f76; stroke:none;" d="M180 173L181 174L180 173z"/>
<path style="fill:#756b65; stroke:none;" d="M231 173L232 174L231 173z"/>
<path style="fill:#bba89d; stroke:none;" d="M232 173L233 174L232 173z"/>
<path style="fill:#6c564a; stroke:none;" d="M277 173L278 174L277 173z"/>
<path style="fill:#8a6c5a; stroke:none;" d="M331 173L332 174L331 173z"/>
<path style="fill:#c3aea1; stroke:none;" d="M177 174L178 175L177 174z"/>
<path style="fill:#524b47; stroke:none;" d="M178 174L179 175L178 174z"/>
<path style="fill:#625a56; stroke:none;" d="M234 174L235 175L234 174z"/>
<path style="fill:#a8978d; stroke:none;" d="M235 174L236 175L235 174z"/>
<path style="fill:#997863; stroke:none;" d="M274 174L275 175L274 174z"/>
<path style="fill:#56463c; stroke:none;" d="M333 174L334 175L333 174z"/>
<path style="fill:#c79b7f; stroke:none;" d="M334 174L335 175L334 174z"/>
<path style="fill:#a79991; stroke:none;" d="M175 175L176 176L175 175z"/>
<path style="fill:#625a56; stroke:none;" d="M198 175C199.248 175.685 199.548 175.749 201 176C199.752 175.315 199.452 175.251 198 175z"/>
<path style="fill:#918176; stroke:none;" d="M201 175C202.248 175.685 202.548 175.749 204 176C202.752 175.315 202.452 175.251 201 175z"/>
<path style="fill:#d7c1b1; stroke:none;" d="M204.667 175.333C204.222 175.778 205.278 175.722 205.333 175.667C205.778 175.222 204.722 175.278 204.667 175.333z"/>
<path style="fill:#ffe3d1; stroke:none;" d="M206 175.428C198.224 176.357 186.248 175.808 180.652 182.34C176.136 187.611 176.729 195.709 178.004 202C181.631 219.901 193.394 230.073 212 227.816C227.629 225.919 237.617 209.826 237.985 195C238.083 191.077 238.516 186.475 236.258 183.044C230.904 174.91 214.684 174.391 206 175.428z"/>
<path style="fill:#e1c9b9; stroke:none;" d="M212 175C213.248 175.685 213.548 175.749 215 176C213.752 175.315 213.452 175.251 212 175z"/>
<path style="fill:#bba89d; stroke:none;" d="M215.667 175.333C215.222 175.778 216.278 175.722 216.333 175.667C216.778 175.222 215.722 175.278 215.667 175.333z"/>
<path style="fill:#a09086; stroke:none;" d="M217 175C218.248 175.685 218.548 175.749 220 176C218.752 175.315 218.452 175.251 217 175z"/>
<path style="fill:#59524d; stroke:none;" d="M220.667 175.333C220.222 175.778 221.278 175.722 221.333 175.667C221.778 175.222 220.722 175.278 220.667 175.333z"/>
<path style="fill:#5b554f; stroke:none;" d="M237 175L238 176L237 175z"/>
<path style="fill:#ae9c90; stroke:none;" d="M238 175L239 176L238 175z"/>
<path style="fill:#997863; stroke:none;" d="M272 175L273 176L272 175z"/>
<path style="fill:#5e4c40; stroke:none;" d="M290 175C291.248 175.685 291.548 175.749 293 176C291.752 175.315 291.452 175.251 290 175z"/>
<path style="fill:#be947a; stroke:none;" d="M293.667 175.333C293.222 175.778 294.278 175.722 294.333 175.667C294.778 175.222 293.722 175.278 293.667 175.333z"/>
<path style="fill:#fdc39f; stroke:none;" d="M295 175.424C288.913 176.233 281.828 176.556 277.228 181.225C272.614 185.908 273.396 195.035 274.669 201C278.558 219.23 292.364 230.142 311 227.815C325.982 225.944 333.854 209.727 333.996 196C334.042 191.589 334.051 186.824 331.297 183.108C324.993 174.6 304.518 174.159 295 175.424z"/>
<path style="fill:#9c7a65; stroke:none;" d="M306.667 175.333C306.222 175.778 307.278 175.722 307.333 175.667C307.778 175.222 306.722 175.278 306.667 175.333z"/>
<path style="fill:#6c564a; stroke:none;" d="M308 175C309.248 175.685 309.548 175.749 311 176C309.752 175.315 309.452 175.251 308 175z"/>
<path style="fill:#41372f; stroke:none;" d="M311 175C312.248 175.685 312.548 175.749 314 176C312.752 175.315 312.452 175.251 311 175z"/>
<path style="fill:#927360; stroke:none;" d="M336 175L337 176L336 175z"/>
<path style="fill:#564f4b; stroke:none;" d="M193 176L194 177L193 176z"/>
<path style="fill:#ae9c90; stroke:none;" d="M194.667 176.333C194.222 176.778 195.278 176.722 195.333 176.667C195.778 176.222 194.722 176.278 194.667 176.333z"/>
<path style="fill:#756b65; stroke:none;" d="M225.667 176.333C225.222 176.778 226.278 176.722 226.333 176.667C226.778 176.222 225.722 176.278 225.667 176.333M240 176L241 177L240 176z"/>
<path style="fill:#c6b2a5; stroke:none;" d="M241 176L242 177L241 176z"/>
<path style="fill:#927360; stroke:none;" d="M285.667 176.333C285.222 176.778 286.278 176.722 286.333 176.667C286.778 176.222 285.722 176.278 285.667 176.333z"/>
<path style="fill:#b68d74; stroke:none;" d="M315 176L316 177L315 176z"/>
<path style="fill:#5e4c40; stroke:none;" d="M316.667 176.333C316.222 176.778 317.278 176.722 317.333 176.667C317.778 176.222 316.722 176.278 316.667 176.333z"/>
<path style="fill:#6e645d; stroke:none;" d="M189 177L190 178L189 177z"/>
<path style="fill:#a09086; stroke:none;" d="M190 177L191 178L190 177z"/>
<path style="fill:#c3aea1; stroke:none;" d="M228 177L229 178L228 177z"/>
<path style="fill:#6e645d; stroke:none;" d="M229 177L230 178L229 177z"/>
<path style="fill:#887c73; stroke:none;" d="M243 177L244 178L243 177z"/>
<path style="fill:#5e4c40; stroke:none;" d="M269 177L270 178L269 177z"/>
<path style="fill:#5b493f; stroke:none;" d="M282 177L283 178L282 177z"/>
<path style="fill:#ba9177; stroke:none;" d="M283 177L284 178L283 177z"/>
<path style="fill:#927360; stroke:none;" d="M321 177L322 178L321 177z"/>
<path style="fill:#a39187; stroke:none;" d="M161 178L162 179L161 178z"/>
<path style="fill:#5b554f; stroke:none;" d="M185 178L186 179L185 178z"/>
<path style="fill:#9d8d83; stroke:none;" d="M186 178L187 179L186 178z"/>
<path style="fill:#7b6f68; stroke:none;" d="M231 178L232 179L231 178z"/>
<path style="fill:#998b81; stroke:none;" d="M246 178L247 179L246 178z"/>
<path style="fill:#7c6353; stroke:none;" d="M267 178L268 179L267 178z"/>
<path style="fill:#695547; stroke:none;" d="M280 178L281 179L280 178z"/>
<path style="fill:#a6826a; stroke:none;" d="M324 178L325 179L324 178z"/>
<path style="fill:#645044; stroke:none;" d="M325 178L326 179L325 178z"/>
<path style="fill:#8a6c5a; stroke:none;" d="M350 178L351 179L350 178z"/>
<path style="fill:#ffd9c1; stroke:none;" d="M137 179L137 207C139.604 200.793 139.604 185.207 137 179z"/>
<path style="fill:#fdc39f; stroke:none;" d="M138 179C138 195.82 133.395 219.566 153 227L153 179L138 179z"/>
<path style="fill:#ffcfb1; stroke:none;" d="M153 179L153 227C154.552 223.301 154 218.983 154 215L154 192C154 187.74 154.661 182.959 153 179z"/>
<path style="fill:#69615b; stroke:none;" d="M183 179L184 180L183 179z"/>
<path style="fill:#59524d; stroke:none;" d="M233 179L234 180L233 179M248 179L249 180L248 179z"/>
<path style="fill:#9d8d83; stroke:none;" d="M249 179L250 180L249 179z"/>
<path style="fill:#695547; stroke:none;" d="M265 179L266 180L265 179z"/>
<path style="fill:#856957; stroke:none;" d="M327 179L328 180L327 179z"/>
<path style="fill:#fda56d; stroke:none;" d="M359 179L359 226C377.586 219.681 373 194.261 373 179L359 179z"/>
<path style="fill:#c9b5a7; stroke:none;" d="M160 180L160 185C160.83 182.97 160.83 182.031 160 180z"/>
<path style="fill:#c3aea1; stroke:none;" d="M164 180L165 181L164 180z"/>
<path style="fill:#ffe3d1; stroke:none;" d="M165 180C166.248 180.685 166.548 180.749 168 181C166.752 180.315 166.452 180.251 165 180z"/>
<path style="fill:#918176; stroke:none;" d="M168 180L169 181L168 180z"/>
<path style="fill:#b6a497; stroke:none;" d="M182 180L183 181L182 180z"/>
<path style="fill:#857970; stroke:none;" d="M234 180L235 181L234 180z"/>
<path style="fill:#6e645d; stroke:none;" d="M251 180L252 181L251 180z"/>
<path style="fill:#cbaf9d; stroke:none;" d="M252 180L253 181L252 180z"/>
<path style="fill:#8a6c5a; stroke:none;" d="M262 180L263 181L262 180z"/>
<path style="fill:#765e4f; stroke:none;" d="M277 180L278 181L277 180z"/>
<path style="fill:#5e4c40; stroke:none;" d="M329 180L330 181L329 180z"/>
<path style="fill:#645044; stroke:none;" d="M344 180L345 181L344 180z"/>
<path style="fill:#fdc39f; stroke:none;" d="M345 180C346.248 180.685 346.548 180.749 348 181C346.752 180.315 346.452 180.251 345 180z"/>
<path style="fill:#be947a; stroke:none;" d="M348 180L349 181L348 180z"/>
<path style="fill:#59524d; stroke:none;" d="M165 181C166.248 181.685 166.548 181.749 168 182C166.752 181.315 166.452 181.251 165 181z"/>
<path style="fill:#a39187; stroke:none;" d="M235 181L236 182L235 181z"/>
<path style="fill:#6c564a; stroke:none;" d="M254 181L255 182L254 181z"/>
<path style="fill:#fda56d; stroke:none;" d="M255 181C256.506 181.683 257.315 181.826 259 182C257.494 181.317 256.685 181.174 255 181z"/>
<path style="fill:#8f6143; stroke:none;" d="M259 181L260 182L259 181z"/>
<path style="fill:#967661; stroke:none;" d="M276 181L277 182L276 181z"/>
<path style="fill:#725a4c; stroke:none;" d="M330 181L331 182L330 181z"/>
<path style="fill:#3b332c; stroke:none;" d="M345 181C346.248 181.685 346.549 181.749 348 182C346.752 181.315 346.452 181.251 345 181z"/>
<path style="fill:#af8870; stroke:none;" d="M351 181L351 185C351.71 183.24 351.71 182.759 351 181z"/>
<path style="fill:#6e645d; stroke:none;" d="M236 182L237 183L236 182z"/>
<path style="fill:#675347; stroke:none;" d="M275 182L276 183L275 182z"/>
<path style="fill:#514239; stroke:none;" d="M331 182L332 183L331 182z"/>
<path style="fill:#a09086; stroke:none;" d="M179 183L180 184L179 183z"/>
<path style="fill:#857970; stroke:none;" d="M164.333 184.667C164.278 184.722 164.222 185.778 164.667 185.333C164.722 185.278 164.778 184.222 164.333 184.667z"/>
<path style="fill:#c6b3a8; stroke:none;" d="M165 184L165 186L168 186L168 184L165 184z"/>
<path style="fill:#6e645d; stroke:none;" d="M168.333 184.667C168.278 184.722 168.222 185.778 168.667 185.333C168.722 185.278 168.778 184.222 168.333 184.667z"/>
<path style="fill:#c1afcb; stroke:none;" d="M206 184C207.769 184.779 209.036 184.912 211 185C209.231 184.221 207.964 184.088 206 184z"/>
<path style="fill:#918176; stroke:none;" d="M237 184L238 185L237 184z"/>
<path style="fill:#725a4c; stroke:none;" d="M274 184L275 185L274 184z"/>
<path style="fill:#bf9599; stroke:none;" d="M304 184C305.769 184.779 307.036 184.912 309 185C307.231 184.221 305.964 184.088 304 184z"/>
<path style="fill:#856957; stroke:none;" d="M332 184L333 185L332 184z"/>
<path style="fill:#3b332c; stroke:none;" d="M344.333 184.667C344.278 184.722 344.222 185.778 344.667 185.333C344.722 185.278 344.778 184.222 344.333 184.667z"/>
<path style="fill:#b38b73; stroke:none;" d="M345 184L345 186L348 186L348 184L345 184z"/>
<path style="fill:#856957; stroke:none;" d="M348.333 184.667C348.278 184.722 348.222 185.778 348.667 185.333C348.722 185.278 348.778 184.222 348.333 184.667z"/>
<path style="fill:#9d8d83; stroke:none;" d="M178 185L179 186L178 185z"/>
<path style="fill:#7f79c5; stroke:none;" d="M203 185L204 186L203 185z"/>
<path style="fill:#0715bb; stroke:none;" d="M202 186C205.653 187.124 210.119 186.011 214 186C210.147 184.383 205.993 185.049 202 186z"/>
<path style="fill:#363ec1; stroke:none;" d="M214 187L217 186C215.222 185.045 214.979 185.234 214 187z"/>
<path style="fill:#b0a1c9; stroke:none;" d="M217 185L218 186L217 185z"/>
<path style="fill:#a78597; stroke:none;" d="M298 185L299 186L298 185z"/>
<path style="fill:#33328e; stroke:none;" d="M299 185C300.139 186.015 300.612 186.309 302 187C301.02 185.217 301.092 185.406 299 185z"/>
<path style="fill:#050f89; stroke:none;" d="M302 185C305.603 186.526 310.083 186.691 314 187C310.397 184.539 306.243 185 302 185z"/>
<path style="fill:#856e94; stroke:none;" d="M312 185L313 186L312 185z"/>
<path style="fill:#7f79c5; stroke:none;" d="M200 186L201 187L200 186z"/>
<path style="fill:#3b42c1; stroke:none;" d="M201.333 186.667C201.278 186.722 201.222 187.778 201.667 187.333C201.722 187.278 201.778 186.222 201.333 186.667z"/>
<path style="fill:#6769bb; stroke:none;" d="M205.667 186.333C205.222 186.778 206.278 186.722 206.333 186.667C206.778 186.222 205.722 186.278 205.667 186.333z"/>
<path style="fill:#8787af; stroke:none;" d="M207 186C209.332 186.985 211.457 186.981 214 187C211.668 186.015 209.543 186.019 207 186z"/>
<path style="fill:#0715bb; stroke:none;" d="M215 186L227 192C223.769 187.911 220.132 186.451 215 186z"/>
<path style="fill:#5557c1; stroke:none;" d="M219 186L220 187L219 186z"/>
<path style="fill:#b0a1c9; stroke:none;" d="M220 186L221 187L220 186z"/>
<path style="fill:#a08097; stroke:none;" d="M295 186L296 187L295 186z"/>
<path style="fill:#4c4490; stroke:none;" d="M296 186L297 187L296 186z"/>
<path style="fill:#050f89; stroke:none;" d="M290 191C293.658 189.5 297.141 187.917 301 187C296.669 185.464 292.851 187.736 290 191z"/>
<path style="fill:#87819b; stroke:none;" d="M302 186C304.613 187.098 307.164 186.993 310 187C307.387 185.902 304.836 186.007 302 186z"/>
<path style="fill:#2d2f93; stroke:none;" d="M314.333 186.667C314.278 186.722 314.222 187.778 314.667 187.333C314.722 187.278 314.778 186.222 314.333 186.667z"/>
<path style="fill:#856e94; stroke:none;" d="M315 186L316 187L315 186z"/>
<path style="fill:#675347; stroke:none;" d="M333 186L334 187L333 186z"/>
<path style="fill:#8c7f76; stroke:none;" d="M161 187L162 188L161 187z"/>
<path style="fill:#625a56; stroke:none;" d="M177 187L178 188L177 187z"/>
<path style="fill:#0715bb; stroke:none;" d="M197 188C198.659 188.406 199.242 188.309 201 188C199.191 187.426 198.931 187.535 197 188z"/>
<path style="fill:#7f81d3; stroke:none;" d="M202 187L203 188L202 187z"/>
<path style="fill:#e7e7ec; stroke:none;" d="M203 187L203 189C204.635 188.455 204.455 188.635 205 187L203 187z"/>
<path style="fill:#b4b3b3; stroke:none;" d="M205.148 188.028C197.303 192.675 206.216 204.422 213.772 199.821C222.093 194.754 213.459 183.105 205.148 188.028z"/>
<path style="fill:#cdcbe7; stroke:none;" d="M215 187L215 189C216.635 188.455 216.455 188.635 217 187L215 187z"/>
<path style="fill:#7f7bcd; stroke:none;" d="M217 187L218 188L217 187z"/>
<path style="fill:#736fc3; stroke:none;" d="M222 187L223 188L222 187z"/>
<path style="fill:#93857b; stroke:none;" d="M238.333 187.667C238.278 187.722 238.222 188.778 238.667 188.333C238.722 188.278 238.778 187.222 238.333 187.667z"/>
<path style="fill:#7c6353; stroke:none;" d="M273.333 187.667C273.278 187.722 273.222 188.778 273.667 188.333C273.722 188.278 273.778 187.222 273.333 187.667z"/>
<path style="fill:#645591; stroke:none;" d="M293 187L294 188L293 187z"/>
<path style="fill:#8779a7; stroke:none;" d="M298 187L299 188L298 187z"/>
<path style="fill:#ffffff; stroke:none;" d="M285 199C291.147 199.017 296.918 200.516 303 201C298.638 195.883 297.959 193.085 301 187C294.572 188.852 286.964 192.153 285 199z"/>
<path style="fill:#b4b3b3; stroke:none;" d="M301.318 188.028C294.331 192.69 302.352 204.315 309.856 199.971C318.583 194.92 309.548 182.536 301.318 188.028z"/>
<path style="fill:#e7e7ec; stroke:none;" d="M311 187L312 188L311 187z"/>
<path style="fill:#b7b3d3; stroke:none;" d="M312 187L313 188L312 187z"/>
<path style="fill:#7672ae; stroke:none;" d="M313 187L314 188L313 187z"/>
<path style="fill:#050f89; stroke:none;" d="M315 187C316.458 188.081 317.248 188.436 319 189C317.542 187.919 316.752 187.564 315 187z"/>
<path style="fill:#4f458f; stroke:none;" d="M317 187L318 188L317 187z"/>
<path style="fill:#af8870; stroke:none;" d="M333 187L334 188L333 187z"/>
<path style="fill:#645044; stroke:none;" d="M350 187L351 188L350 187z"/>
<path style="fill:#c9b5a7; stroke:none;" d="M177.333 188.667C177.278 188.722 177.222 189.778 177.667 189.333C177.722 189.278 177.778 188.222 177.333 188.667z"/>
<path style="fill:#5557c1; stroke:none;" d="M196 188L197 189L196 188z"/>
<path style="fill:#6f75d1; stroke:none;" d="M199 188L200 189L199 188z"/>
<path style="fill:#ffffff; stroke:none;" d="M189 197C194.251 199.636 200.144 200.748 206 201C203.235 196.337 202.043 193.419 203 188C197.426 189.006 191.663 191.863 189 197M216 188C217.254 193.202 217.238 196.342 213 200C218.135 201.841 225.427 199.015 231 199C228.752 192.529 222.51 189.161 216 188z"/>
<path style="fill:#bfb9de; stroke:none;" d="M219 188L220 189L219 188z"/>
<path style="fill:#5759c2; stroke:none;" d="M220 188L221 189L220 188z"/>
<path style="fill:#bf9599; stroke:none;" d="M291 188L292 189L291 188z"/>
<path style="fill:#635997; stroke:none;" d="M295 188L296 189L295 188z"/>
<path style="fill:#c5b7c7; stroke:none;" d="M296 188L297 189L296 188z"/>
<path style="fill:#ffffff; stroke:none;" d="M312 188C314.303 193.48 313.059 196.136 310 201C315.925 200.745 321.581 199.399 327 197L327 195C322.2 191.765 317.807 188.874 312 188z"/>
<path style="fill:#c7c9e5; stroke:none;" d="M315 188L316 189L315 188z"/>
<path style="fill:#6363a9; stroke:none;" d="M316 188L317 189L316 188z"/>
<path style="fill:#645591; stroke:none;" d="M319 188L320 189L319 188z"/>
<path style="fill:#c3aea1; stroke:none;" d="M162 189L163 190L162 189z"/>
<path style="fill:#59524d; stroke:none;" d="M163 189C164.248 189.685 164.548 189.749 166 190C164.752 189.315 164.452 189.251 163 189z"/>
<path style="fill:#8a84ca; stroke:none;" d="M194 189L195 190L194 189z"/>
<path style="fill:#0f1dbb; stroke:none;" d="M195.667 189.333C195.222 189.778 196.278 189.722 196.333 189.667C196.778 189.222 195.722 189.278 195.667 189.333z"/>
<path style="fill:#898dd8; stroke:none;" d="M197 189L198 190L197 189z"/>
<path style="fill:#767676; stroke:none;" d="M208.667 189.333C208.222 189.778 209.278 189.722 209.333 189.667C209.778 189.222 208.722 189.278 208.667 189.333z"/>
<path style="fill:#d0c9e2; stroke:none;" d="M221 189L222 190L221 189z"/>
<path style="fill:#474bc1; stroke:none;" d="M222 189L223 190L222 189z"/>
<path style="fill:#8880c7; stroke:none;" d="M225 189L226 190L225 189z"/>
<path style="fill:#c9b5a7; stroke:none;" d="M238 189L238 194C238.83 191.969 238.83 191.031 238 189z"/>
<path style="fill:#c3987c; stroke:none;" d="M273 189L273 194C273.83 191.97 273.83 191.03 273 189z"/>
<path style="fill:#6b5991; stroke:none;" d="M290 189L291 190L290 189z"/>
<path style="fill:#514993; stroke:none;" d="M293 189L294 190L293 189z"/>
<path style="fill:#ddcbcf; stroke:none;" d="M294 189L295 190L294 189z"/>
<path style="fill:#818181; stroke:none;" d="M304 189C305.506 189.683 306.315 189.826 308 190C306.494 189.317 305.685 189.174 304 189z"/>
<path style="fill:#7672ae; stroke:none;" d="M318 189L319 190L318 189z"/>
<path style="fill:#121a88; stroke:none;" d="M319 189C320.686 190.656 321.746 191.251 324 192C322.314 190.344 321.254 189.749 319 189z"/>
<path style="fill:#a08097; stroke:none;" d="M321 189L322 190L321 189z"/>
<path style="fill:#645044; stroke:none;" d="M348 189L349 190L348 189z"/>
<path style="fill:#a9856d; stroke:none;" d="M349 189L350 190L349 189z"/>
<path style="fill:#c6b2a5; stroke:none;" d="M167 190L168 191L167 190z"/>
<path style="fill:#5d5651; stroke:none;" d="M168 190L169 191L168 190z"/>
<path style="fill:#363ec1; stroke:none;" d="M192 191C193.659 191.406 194.242 191.309 196 191C194.191 190.426 193.931 190.535 192 191z"/>
<path style="fill:#111111; stroke:none;" d="M207 190C207.334 192.512 208.146 194.62 209 197C214.823 194.658 212.248 190.409 207 190z"/>
<path style="fill:#767676; stroke:none;" d="M212 190L213 191L212 190z"/>
<path style="fill:#d0c9e2; stroke:none;" d="M223 190L224 191L223 190z"/>
<path style="fill:#4045bf; stroke:none;" d="M224 190L225 191L224 190z"/>
<path style="fill:#6363c3; stroke:none;" d="M226 190L227 191L226 190z"/>
<path style="fill:#473f8f; stroke:none;" d="M289 190L290 191L289 190z"/>
<path style="fill:#4c4490; stroke:none;" d="M291 190L292 191L291 190z"/>
<path style="fill:#d5c5cd; stroke:none;" d="M292 190L293 191L292 190z"/>
<path style="fill:#575757; stroke:none;" d="M303 190L304 191L303 190z"/>
<path style="fill:#111111; stroke:none;" d="M303 196C306.744 195.081 308.347 193.856 309 190C304.635 190.34 303.34 191.635 303 196z"/>
<path style="fill:#cfcfcf; stroke:none;" d="M313 190L313 193C313.696 191.446 313.696 191.554 313 190z"/>
<path style="fill:#675347; stroke:none;" d="M334.333 190.667C334.278 190.722 334.222 191.778 334.667 191.333C334.722 191.278 334.778 190.222 334.333 190.667z"/>
<path style="fill:#c79b7f; stroke:none;" d="M344.667 190.333C344.222 190.778 345.278 190.722 345.333 190.667C345.778 190.222 344.722 190.278 344.667 190.333z"/>
<path style="fill:#c9b5a7; stroke:none;" d="M168.333 191.667C168.278 191.722 168.222 192.778 168.667 192.333C168.722 192.278 168.778 191.222 168.333 191.667z"/>
<path style="fill:#bbbfed; stroke:none;" d="M194 191L195 192L194 191z"/>
<path style="fill:#393939; stroke:none;" d="M206 191L206 194C206.696 192.446 206.696 192.554 206 191z"/>
<path style="fill:#8a84ca; stroke:none;" d="M225 191L226 192L225 191z"/>
<path style="fill:#5d5dc1; stroke:none;" d="M227 191L228 192L227 191z"/>
<path style="fill:#2c2c8d; stroke:none;" d="M287 194C288.457 192.897 288.897 192.457 290 191C287.876 191.899 287.899 191.876 287 194z"/>
<path style="fill:#9987a9; stroke:none;" d="M290 191L291 192L290 191z"/>
<path style="fill:#cfcfcf; stroke:none;" d="M298 191L298 196C298.83 193.97 298.83 193.031 298 191z"/>
<path style="fill:#616161; stroke:none;" d="M302 191L302 195C302.71 193.24 302.71 192.759 302 191z"/>
<path style="fill:#5d5d5d; stroke:none;" d="M309 191L309 194C309.696 192.446 309.696 192.554 309 191z"/>
<path style="fill:#a7a9d3; stroke:none;" d="M321 191L322 192L321 191z"/>
<path style="fill:#be947a; stroke:none;" d="M343.333 191.667C343.278 191.722 343.222 192.778 343.667 192.333C343.722 192.278 343.778 191.222 343.333 191.667z"/>
<path style="fill:#423e3c; stroke:none;" d="M176 192L176 197C176.83 194.969 176.83 194.03 176 192z"/>
<path style="fill:#2731bf; stroke:none;" d="M191 192L192 193L191 192z"/>
<path style="fill:#898dd8; stroke:none;" d="M192 192L193 193L192 192z"/>
<path style="fill:#616161; stroke:none;" d="M213 192L213 195C213.696 193.446 213.696 193.554 213 192z"/>
<path style="fill:#cfcfcf; stroke:none;" d="M217 192L217 195C217.696 193.446 217.696 193.554 217 192z"/>
<path style="fill:#bfb9de; stroke:none;" d="M226 192L227 193L226 192z"/>
<path style="fill:#1521bb; stroke:none;" d="M227 192L228 193L227 192z"/>
<path style="fill:#7f79c5; stroke:none;" d="M228 192L229 193L228 192z"/>
<path style="fill:#8f715f; stroke:none;" d="M253 192C254.248 192.685 254.548 192.749 256 193C254.752 192.315 254.452 192.251 253 192z"/>
<path style="fill:#734f39; stroke:none;" d="M256.667 192.333C256.222 192.778 257.278 192.722 257.333 192.667C257.778 192.222 256.722 192.278 256.667 192.333z"/>
<path style="fill:#cfbdc7; stroke:none;" d="M289 192L290 193L289 192z"/>
<path style="fill:#6f6dad; stroke:none;" d="M323 192L324 193L323 192z"/>
<path style="fill:#2d2f93; stroke:none;" d="M324 192L325 193L324 192z"/>
<path style="fill:#856957; stroke:none;" d="M334 192L334 196C334.71 194.24 334.71 193.76 334 192z"/>
<path style="fill:#3b42c1; stroke:none;" d="M190 193L191 194L190 193z"/>
<path style="fill:#1d29bd; stroke:none;" d="M228 193L229 194L228 193z"/>
<path style="fill:#a98570; stroke:none;" d="M251 193L252 194L251 193z"/>
<path style="fill:#fda56d; stroke:none;" d="M256 193L256 266C263.665 265.909 265.058 261.57 271.039 257.973C273.758 256.338 277.313 255.903 278.932 252.811C281.924 247.097 276.671 239.441 271 239C269.617 228.058 268.536 216.725 266 206C264.37 199.109 264.252 193.92 256 193z"/>
<path style="fill:#a16b4a; stroke:none;" d="M260 193L261 194L260 193z"/>
<path style="fill:#ab8799; stroke:none;" d="M286 193L287 194L286 193z"/>
<path style="fill:#b7b7d9; stroke:none;" d="M324 193L325 194L324 193z"/>
<path style="fill:#39358f; stroke:none;" d="M325 193L326 194L325 193z"/>
<path style="fill:#7575cb; stroke:none;" d="M189 194L190 195L189 194z"/>
<path style="fill:#ffffff; stroke:none;" d="M205 194L205 198L208 198L208 194L205 194z"/>
<path style="fill:#767676; stroke:none;" d="M208 194L209 195L208 194z"/>
<path style="fill:#4045bf; stroke:none;" d="M229 194L230 195L229 194z"/>
<path style="fill:#9d8d83; stroke:none;" d="M238 194L238 197C238.696 195.446 238.696 195.554 238 194z"/>
<path style="fill:#8f715f; stroke:none;" d="M249 194L250 195L249 194z"/>
<path style="fill:#a16b4a; stroke:none;" d="M262 194L263 195L262 194z"/>
<path style="fill:#927360; stroke:none;" d="M273 194L273 197C273.696 195.446 273.696 195.554 273 194z"/>
<path style="fill:#39358f; stroke:none;" d="M286 194L287 195L286 194z"/>
<path style="fill:#a8a7a6; stroke:none;" d="M307 194L308 195L307 194z"/>
<path style="fill:#ffffff; stroke:none;" d="M307 198L311 198L311 194C308.374 194.839 307.839 195.374 307 198z"/>
<path style="fill:#cfcfcf; stroke:none;" d="M313 194L313 197C313.696 195.446 313.696 195.554 313 194z"/>
<path style="fill:#6d619b; stroke:none;" d="M326 194L327 195L326 194z"/>
<path style="fill:#5d5651; stroke:none;" d="M169 195L169 198C169.696 196.446 169.696 196.554 169 195z"/>
<path style="fill:#a7a3d9; stroke:none;" d="M188 195L189 196L188 195z"/>
<path style="fill:#cfcfcf; stroke:none;" d="M204.333 195.667C204.278 195.722 204.222 196.778 204.667 196.333C204.722 196.278 204.778 195.222 204.333 195.667z"/>
<path style="fill:#e7e7e7; stroke:none;" d="M208 195L208 198C208.696 196.446 208.696 196.554 208 195z"/>
<path style="fill:#d7d3e7; stroke:none;" d="M230.333 195.667C230.278 195.722 230.222 196.778 230.667 196.333C230.722 196.278 230.778 195.222 230.333 195.667z"/>
<path style="fill:#be947a; stroke:none;" d="M248 195L249 196L248 195z"/>
<path style="fill:#a9714d; stroke:none;" d="M263 195L264 196L263 195z"/>
<path style="fill:#957b99; stroke:none;" d="M285 195L286 196L285 195z"/>
<path style="fill:#252525; stroke:none;" d="M306 195L304 196C305.482 196.791 306.796 196.87 306 195z"/>
<path style="fill:#9d8db1; stroke:none;" d="M327 195L328 196L327 195z"/>
<path style="fill:#5b493f; stroke:none;" d="M342 195L342 198C342.696 196.446 342.696 196.554 342 195z"/>
<path style="fill:#4d4d4d; stroke:none;" d="M211 196L212 197L211 196z"/>
<path style="fill:#b49c8c; stroke:none;" d="M247 196L248 197L247 196z"/>
<path style="fill:#9b755d; stroke:none;" d="M264 196L265 197L264 196z"/>
<path style="fill:#645044; stroke:none;" d="M334 196L334 199C334.696 197.446 334.696 197.554 334 196z"/>
<path style="fill:#ffcfb1; stroke:none;" d="M188 197C189.181 205.73 193.528 212.451 202 215.786C214.28 220.621 229.026 211.647 231 199C220.456 201.728 211.314 206.28 200 202.957C195.536 201.646 192.059 199.066 188 197z"/>
<path style="fill:#423e3c; stroke:none;" d="M238.333 197.667C238.278 197.722 238.222 198.778 238.667 198.333C238.722 198.278 238.778 197.222 238.333 197.667z"/>
<path style="fill:#7b6f68; stroke:none;" d="M246 197L247 198L246 197z"/>
<path style="fill:#675347; stroke:none;" d="M265 197L266 198L265 197z"/>
<path style="fill:#3b332c; stroke:none;" d="M273.333 197.667C273.278 197.722 273.222 198.778 273.667 198.333C273.722 198.278 273.778 197.222 273.333 197.667z"/>
<path style="fill:#fdb17f; stroke:none;" d="M326 197C319.077 205.049 303.643 205.688 294.004 202.826C290.814 201.879 288.171 199.911 285 199C288.754 223.935 325.566 221.257 328 197L326 197z"/>
<path style="fill:#bba89d; stroke:none;" d="M169.333 198.667C169.278 198.722 169.222 199.778 169.667 199.333C169.722 199.278 169.778 198.222 169.333 198.667z"/>
<path style="fill:#fda56d; stroke:none;" d="M190 198C196.778 204.791 209.013 205.125 218 203.536C221.784 202.867 225.748 202.228 228 199C221.1 199.891 214.004 202.215 207 201.896C201.143 201.629 195.597 199.496 190 198z"/>
<path style="fill:#fdd7bf; stroke:none;" d="M323 198L324 199L323 198z"/>
<path style="fill:#fd9757; stroke:none;" d="M322 201L326 199C323.777 198.631 323.265 199.14 322 201z"/>
<path style="fill:#cfa183; stroke:none;" d="M342.333 198.667C342.278 198.722 342.222 199.778 342.667 199.333C342.722 199.278 342.778 198.222 342.333 198.667z"/>
<path style="fill:#b19f93; stroke:none;" d="M177 199L177 202C177.696 200.446 177.696 200.554 177 199z"/>
<path style="fill:#ffe7d9; stroke:none;" d="M194.667 199.333C194.222 199.778 195.278 199.722 195.333 199.667C195.778 199.222 194.722 199.278 194.667 199.333z"/>
<path style="fill:#ffcfb1; stroke:none;" d="M222 199C223.248 199.685 223.548 199.749 225 200C223.752 199.315 223.452 199.251 222 199z"/>
<path style="fill:#b6a497; stroke:none;" d="M245 199L246 200L245 199z"/>
<path style="fill:#be947a; stroke:none;" d="M266 199L267 200L266 199z"/>
<path style="fill:#fb853b; stroke:none;" d="M288 199C293.533 208.052 313.796 204.073 322 201C317.346 199.331 311.913 201.971 307 201.971C300.59 201.971 294.326 199.817 288 199z"/>
<path style="fill:#fdc39f; stroke:none;" d="M291 199C292.248 199.685 292.548 199.749 294 200C292.752 199.315 292.452 199.251 291 199z"/>
<path style="fill:#fdb98f; stroke:none;" d="M320.667 199.333C320.222 199.778 321.278 199.722 321.333 199.667C321.778 199.222 320.722 199.278 320.667 199.333z"/>
<path style="fill:#ffd9c1; stroke:none;" d="M198 200C199.248 200.685 199.548 200.749 201 201C199.752 200.315 199.452 200.251 198 200z"/>
<path style="fill:#ffcfb1; stroke:none;" d="M217 200C218.248 200.685 218.548 200.749 220 201C218.752 200.315 218.452 200.251 217 200z"/>
<path style="fill:#bfab9e; stroke:none;" d="M237 200L238 201L237 200z"/>
<path style="fill:#be947a; stroke:none;" d="M274 200L275 201L274 200z"/>
<path style="fill:#fdc39f; stroke:none;" d="M296 200C297.248 200.685 297.548 200.749 299 201C297.752 200.315 297.452 200.251 296 200z"/>
<path style="fill:#fdcdaf; stroke:none;" d="M315 200C316.248 200.685 316.548 200.749 318 201C316.752 200.315 316.452 200.251 315 200z"/>
<path style="fill:#ebbb9b; stroke:none;" d="M203 201C206.163 202.327 209.586 202 213 202C209.837 200.673 206.414 201 203 201z"/>
<path style="fill:#8c7f76; stroke:none;" d="M237 201L238 202L237 201z"/>
<path style="fill:#ae9c90; stroke:none;" d="M244 201L245 202L244 201z"/>
<path style="fill:#967661; stroke:none;" d="M267 201L268 202L267 201z"/>
<path style="fill:#7c6353; stroke:none;" d="M274 201L275 202L274 201z"/>
<path style="fill:#f5a777; stroke:none;" d="M301 201C304.697 202.552 309.017 202 313 202C309.303 200.448 304.983 201 301 201z"/>
<path style="fill:#736961; stroke:none;" d="M170.333 202.667C170.278 202.722 170.222 203.778 170.667 203.333C170.722 203.278 170.778 202.222 170.333 202.667z"/>
<path style="fill:#5e4c40; stroke:none;" d="M333.333 202.667C333.278 202.722 333.222 203.778 333.667 203.333C333.722 203.278 333.778 202.222 333.333 202.667z"/>
<path style="fill:#967661; stroke:none;" d="M341.333 202.667C341.278 202.722 341.222 203.778 341.667 203.333C341.722 203.278 341.778 202.222 341.333 202.667z"/>
<path style="fill:#887c73; stroke:none;" d="M243 203L244 204L243 203z"/>
<path style="fill:#56463c; stroke:none;" d="M268 203L269 204L268 203z"/>
<path style="fill:#fd9b5d; stroke:none;" d="M311 203C312.248 203.685 312.548 203.749 314 204C312.752 203.315 312.452 203.251 311 203z"/>
<path style="fill:#a39187; stroke:none;" d="M170 204L171 205L170 204z"/>
<path style="fill:#ceb9ac; stroke:none;" d="M178 204L179 205L178 204z"/>
<path style="fill:#ae9c90; stroke:none;" d="M236 204L237 205L236 204z"/>
<path style="fill:#a98570; stroke:none;" d="M268 204L269 205L268 204z"/>
<path style="fill:#a38069; stroke:none;" d="M275 204L276 205L275 204z"/>
<path style="fill:#93857b; stroke:none;" d="M178 205L179 206L178 205z"/>
<path style="fill:#59524d; stroke:none;" d="M236 205L237 206L236 205z"/>
<path style="fill:#625a56; stroke:none;" d="M242 205L243 206L242 205z"/>
<path style="fill:#514239; stroke:none;" d="M275 205L276 206L275 205z"/>
<path style="fill:#524b47; stroke:none;" d="M178 206L179 207L178 206z"/>
<path style="fill:#c3aea1; stroke:none;" d="M242 206L243 207L242 206z"/>
<path style="fill:#765e4f; stroke:none;" d="M269 206L270 207L269 206z"/>
<path style="fill:#856957; stroke:none;" d="M332 206L333 207L332 206z"/>
<path style="fill:#56463c; stroke:none;" d="M340 206L341 207L340 206z"/>
<path style="fill:#5d5651; stroke:none;" d="M171 207L172 208L171 207z"/>
<path style="fill:#8c7f76; stroke:none;" d="M235 207L236 208L235 207z"/>
<path style="fill:#927360; stroke:none;" d="M276 207L277 208L276 207M340 207L341 208L340 207z"/>
<path style="fill:#97897f; stroke:none;" d="M171 208L172 209L171 208z"/>
<path style="fill:#9d8d83; stroke:none;" d="M179 208L180 209L179 208z"/>
<path style="fill:#a8978d; stroke:none;" d="M241 208L242 209L241 208z"/>
<path style="fill:#4b3f35; stroke:none;" d="M270 208L271 209L270 208z"/>
<path style="fill:#b1a197; stroke:none;" d="M234 209L235 210L234 209z"/>
<path style="fill:#b68d74; stroke:none;" d="M270 209L271 210L270 209z"/>
<path style="fill:#af8870; stroke:none;" d="M277 209L278 210L277 209z"/>
<path style="fill:#7c6353; stroke:none;" d="M331 209L332 210L331 209z"/>
<path style="fill:#bc9a84; stroke:none;" d="M382 209L382 212C382.696 210.446 382.696 210.554 382 209z"/>
<path style="fill:#dbc5b5; stroke:none;" d="M128.333 210.667C128.278 210.722 128.222 211.778 128.667 211.333C128.722 211.278 128.778 210.222 128.333 210.667z"/>
<path style="fill:#93857b; stroke:none;" d="M240 210L241 211L240 210z"/>
<path style="fill:#7c6353; stroke:none;" d="M339 210L340 211L339 210z"/>
<path style="fill:#93857b; stroke:none;" d="M172 211L173 212L172 211z"/>
<path style="fill:#7b6f68; stroke:none;" d="M180 211L181 212L180 211z"/>
<path style="fill:#b6a497; stroke:none;" d="M233 211L234 212L233 211z"/>
<path style="fill:#9c7a65; stroke:none;" d="M271 211L272 212L271 211z"/>
<path style="fill:#ba9177; stroke:none;" d="M278 211L279 212L278 211z"/>
<path style="fill:#b68d74; stroke:none;" d="M330 211L331 212L330 211z"/>
<path style="fill:#938981; stroke:none;" d="M128.333 212.667C128.278 212.722 128.222 213.778 128.667 213.333C128.722 213.278 128.778 212.222 128.333 212.667z"/>
<path style="fill:#93857b; stroke:none;" d="M239 212L240 213L239 212z"/>
<path style="fill:#625a56; stroke:none;" d="M173 213L174 214L173 213z"/>
<path style="fill:#857970; stroke:none;" d="M181 213L182 214L181 213z"/>
<path style="fill:#a09086; stroke:none;" d="M232 213L233 214L232 213z"/>
<path style="fill:#9c7a65; stroke:none;" d="M272 213L273 214L272 213z"/>
<path style="fill:#a6826a; stroke:none;" d="M279 213L280 214L279 213z"/>
<path style="fill:#c3987c; stroke:none;" d="M329 213L330 214L329 213z"/>
<path style="fill:#af8870; stroke:none;" d="M338 213L339 214L338 213z"/>
<path style="fill:#c9b5a7; stroke:none;" d="M173 214L174 215L173 214z"/>
<path style="fill:#a8978d; stroke:none;" d="M238 214L239 215L238 214z"/>
<path style="fill:#a98e7d; stroke:none;" d="M381.333 214.667C381.278 214.722 381.222 215.778 381.667 215.333C381.722 215.278 381.778 214.222 381.333 214.667z"/>
<path style="fill:#564f4b; stroke:none;" d="M174 215L175 216L174 215z"/>
<path style="fill:#756b65; stroke:none;" d="M182 215L183 216L182 215z"/>
<path style="fill:#5b554f; stroke:none;" d="M231 215L232 216L231 215z"/>
<path style="fill:#b68d74; stroke:none;" d="M273 215L274 216L273 215z"/>
<path style="fill:#7c6353; stroke:none;" d="M280 215L281 216L280 215z"/>
<path style="fill:#c3987c; stroke:none;" d="M328 215L329 216L328 215z"/>
<path style="fill:#927360; stroke:none;" d="M337 215L338 216L337 215z"/>
<path style="fill:#c3aea1; stroke:none;" d="M174 216L175 217L174 216z"/>
<path style="fill:#a09086; stroke:none;" d="M230 216L231 217L230 216z"/>
<path style="fill:#514239; stroke:none;" d="M274 216L275 217L274 216z"/>
<path style="fill:#69615b; stroke:none;" d="M175 217L176 218L175 217z"/>
<path style="fill:#756b65; stroke:none;" d="M236 217L237 218L236 217z"/>
<path style="fill:#997863; stroke:none;" d="M327 217L328 218L327 217M336 217L337 218L336 217z"/>
<path style="fill:#c6b3a8; stroke:none;" d="M130 218L131 219L130 218z"/>
<path style="fill:#8c7f76; stroke:none;" d="M184 218L185 219L184 218z"/>
<path style="fill:#8f715f; stroke:none;" d="M275 218L276 219L275 218z"/>
<path style="fill:#5b493f; stroke:none;" d="M282 218L283 219L282 218z"/>
<path style="fill:#b19f93; stroke:none;" d="M176 219L177 220L176 219z"/>
<path style="fill:#c3aea1; stroke:none;" d="M185 219L186 220L185 219z"/>
<path style="fill:#524b47; stroke:none;" d="M228 219L229 220L228 219z"/>
<path style="fill:#856957; stroke:none;" d="M283 219L284 220L283 219z"/>
<path style="fill:#69615b; stroke:none;" d="M177 220L178 221L177 220z"/>
<path style="fill:#625a56; stroke:none;" d="M227 220L228 221L227 220z"/>
<path style="fill:#97897f; stroke:none;" d="M234 220L235 221L234 220z"/>
<path style="fill:#8f715f; stroke:none;" d="M284 220L285 221L284 220z"/>
<path style="fill:#514239; stroke:none;" d="M325 220L326 221L325 220z"/>
<path style="fill:#9c7a65; stroke:none;" d="M334 220L335 221L334 220z"/>
<path style="fill:#625a56; stroke:none;" d="M178 221L179 222L178 221M226 221L227 222L226 221z"/>
<path style="fill:#69615b; stroke:none;" d="M233 221L234 222L233 221z"/>
<path style="fill:#725a4c; stroke:none;" d="M285 221L286 222L285 221z"/>
<path style="fill:#695547; stroke:none;" d="M324 221L325 222L324 221z"/>
<path style="fill:#5b493f; stroke:none;" d="M333 221L334 222L333 221z"/>
<path style="fill:#bba89d; stroke:none;" d="M132 222L133 223L132 222z"/>
<path style="fill:#5b554f; stroke:none;" d="M179 222L180 223L179 222z"/>
<path style="fill:#c3aea1; stroke:none;" d="M188 222L189 223L188 222z"/>
<path style="fill:#524b47; stroke:none;" d="M225 222L226 223L225 222z"/>
<path style="fill:#ba9177; stroke:none;" d="M278 222L279 223L278 222z"/>
<path style="fill:#59524d; stroke:none;" d="M180 223L181 224L180 223z"/>
<path style="fill:#8c7f76; stroke:none;" d="M189 223L190 224L189 223z"/>
<path style="fill:#ceb9ac; stroke:none;" d="M223 223L224 224L223 223z"/>
<path style="fill:#af8870; stroke:none;" d="M279 223L280 224L279 223z"/>
<path style="fill:#bc9a84; stroke:none;" d="M377 223L378 224L377 223z"/>
<path style="fill:#857970; stroke:none;" d="M181 224L182 225L181 224z"/>
<path style="fill:#564f4b; stroke:none;" d="M190 224L191 225L190 224z"/>
<path style="fill:#857970; stroke:none;" d="M222 224L223 225L222 224z"/>
<path style="fill:#564f4b; stroke:none;" d="M230 224L231 225L230 224z"/>
<path style="fill:#af8870; stroke:none;" d="M280 224L281 225L280 224z"/>
<path style="fill:#645044; stroke:none;" d="M289 224L290 225L289 224z"/>
<path style="fill:#9c7a65; stroke:none;" d="M320 224L321 225L320 224z"/>
<path style="fill:#a8978d; stroke:none;" d="M134 225L135 226L134 225z"/>
<path style="fill:#bba89d; stroke:none;" d="M182 225L183 226L182 225z"/>
<path style="fill:#8c7f76; stroke:none;" d="M192 225L193 226L192 225z"/>
<path style="fill:#9d8d83; stroke:none;" d="M220 225L221 226L220 225z"/>
<path style="fill:#625a56; stroke:none;" d="M229 225L230 226L229 225z"/>
<path style="fill:#a98570; stroke:none;" d="M281 225L282 226L281 225z"/>
<path style="fill:#6c564a; stroke:none;" d="M291 225L292 226L291 225z"/>
<path style="fill:#b68d74; stroke:none;" d="M318 225L319 226L318 225z"/>
<path style="fill:#c6b2a5; stroke:none;" d="M135 226L136 227L135 226z"/>
<path style="fill:#80746c; stroke:none;" d="M194 226L195 227L194 226z"/>
<path style="fill:#c6b2a5; stroke:none;" d="M217 226L218 227L217 226z"/>
<path style="fill:#6e645d; stroke:none;" d="M218 226L219 227L218 226z"/>
<path style="fill:#97897f; stroke:none;" d="M228 226L229 227L228 226z"/>
<path style="fill:#645044; stroke:none;" d="M293 226L294 227L293 226z"/>
<path style="fill:#967661; stroke:none;" d="M316 226L317 227L316 226z"/>
<path style="fill:#695547; stroke:none;" d="M328 226L329 227L328 226z"/>
<path style="fill:#a09086; stroke:none;" d="M185 227L186 228L185 227z"/>
<path style="fill:#8c7f76; stroke:none;" d="M197 227L198 228L197 227z"/>
<path style="fill:#c9b5a7; stroke:none;" d="M198 227L199 228L198 227z"/>
<path style="fill:#bfab9e; stroke:none;" d="M214 227L215 228L214 227z"/>
<path style="fill:#80746c; stroke:none;" d="M215 227L216 228L215 227z"/>
<path style="fill:#695547; stroke:none;" d="M284 227L285 228L284 227z"/>
<path style="fill:#725a4c; stroke:none;" d="M296 227L297 228L296 227z"/>
<path style="fill:#ba9177; stroke:none;" d="M297 227L298 228L297 227z"/>
<path style="fill:#997863; stroke:none;" d="M313 227L314 228L313 227z"/>
<path style="fill:#56463c; stroke:none;" d="M314 227L315 228L314 227z"/>
<path style="fill:#af8870; stroke:none;" d="M327 227L328 228L327 227z"/>
<path style="fill:#ae927f; stroke:none;" d="M374 227L375 228L374 227z"/>
<path style="fill:#756b65; stroke:none;" d="M187 228L188 229L187 228z"/>
<path style="fill:#736961; stroke:none;" d="M200.667 228.333C200.222 228.778 201.278 228.722 201.333 228.667C201.778 228.222 200.722 228.278 200.667 228.333z"/>
<path style="fill:#a8978d; stroke:none;" d="M202.667 228.333C202.222 228.778 203.278 228.722 203.333 228.667C203.778 228.222 202.722 228.278 202.667 228.333z"/>
<path style="fill:#c6b3a8; stroke:none;" d="M204 228C205.769 228.779 207.036 228.912 209 229C207.231 228.221 205.964 228.088 204 228z"/>
<path style="fill:#91847a; stroke:none;" d="M209 228C210.248 228.685 210.548 228.749 212 229C210.752 228.315 210.452 228.251 209 228z"/>
<path style="fill:#80746c; stroke:none;" d="M225 228L226 229L225 228z"/>
<path style="fill:#be947a; stroke:none;" d="M285 228L286 229L285 228z"/>
<path style="fill:#7c6353; stroke:none;" d="M300 228C301.248 228.685 301.548 228.749 303 229C301.752 228.315 301.452 228.251 300 228z"/>
<path style="fill:#b38b73; stroke:none;" d="M303 228C304.769 228.779 306.036 228.912 308 229C306.231 228.221 304.964 228.088 303 228z"/>
<path style="fill:#725a4c; stroke:none;" d="M308.667 228.333C308.222 228.778 309.278 228.722 309.333 228.667C309.778 228.222 308.722 228.278 308.667 228.333M325 228L326 229L325 228z"/>
<path style="fill:#bc9a84; stroke:none;" d="M373 228L374 229L373 228z"/>
<path style="fill:#6e645d; stroke:none;" d="M189 229L190 230L189 229z"/>
<path style="fill:#69615b; stroke:none;" d="M223 229L224 230L223 229z"/>
<path style="fill:#967661; stroke:none;" d="M287 229L288 230L287 229z"/>
<path style="fill:#695547; stroke:none;" d="M323 229L324 230L323 229z"/>
<path style="fill:#b99983; stroke:none;" d="M372 229L373 230L372 229z"/>
<path style="fill:#cab7ab; stroke:none;" d="M139 230L140 231L139 230z"/>
<path style="fill:#887c73; stroke:none;" d="M191 230L192 231L191 230z"/>
<path style="fill:#877971; stroke:none;" d="M221 230L222 231L221 230z"/>
<path style="fill:#7c6353; stroke:none;" d="M289 230L290 231L289 230z"/>
<path style="fill:#856957; stroke:none;" d="M321 230L322 231L321 230z"/>
<path style="fill:#b1a197; stroke:none;" d="M140 231L141 232L140 231z"/>
<path style="fill:#ae9c90; stroke:none;" d="M193 231L194 232L193 231z"/>
<path style="fill:#69615b; stroke:none;" d="M194 231L195 232L194 231z"/>
<path style="fill:#6e645d; stroke:none;" d="M218 231L219 232L218 231z"/>
<path style="fill:#bfab9e; stroke:none;" d="M219 231L220 232L219 231z"/>
<path style="fill:#ba9177; stroke:none;" d="M291 231L292 232L291 231z"/>
<path style="fill:#5e4c40; stroke:none;" d="M292 231L293 232L292 231z"/>
<path style="fill:#695547; stroke:none;" d="M318 231L319 232L318 231z"/>
<path style="fill:#af8870; stroke:none;" d="M319 231L320 232L319 231z"/>
<path style="fill:#bba89d; stroke:none;" d="M196 232L197 233L196 232z"/>
<path style="fill:#423e3c; stroke:none;" d="M197.667 232.333C197.222 232.778 198.278 232.722 198.333 232.667C198.778 232.222 197.722 232.278 197.667 232.333z"/>
<path style="fill:#a39187; stroke:none;" d="M214.667 232.333C214.222 232.778 215.278 232.722 215.333 232.667C215.778 232.222 214.722 232.278 214.667 232.333z"/>
<path style="fill:#765e4f; stroke:none;" d="M294.667 232.333C294.222 232.778 295.278 232.722 295.333 232.667C295.778 232.222 294.722 232.278 294.667 232.333z"/>
<path style="fill:#695547; stroke:none;" d="M314 232L315 233L314 232z"/>
<path style="fill:#a38069; stroke:none;" d="M315 232L316 233L315 232z"/>
<path style="fill:#b6a69c; stroke:none;" d="M143 233L144 234L143 233z"/>
<path style="fill:#918176; stroke:none;" d="M201 233C203.613 234.098 206.165 233.993 209 234C206.387 232.902 203.835 233.007 201 233z"/>
<path style="fill:#ceb9ac; stroke:none;" d="M209 233C210.248 233.685 210.548 233.749 212 234C210.752 233.315 210.452 233.251 209 233z"/>
<path style="fill:#967661; stroke:none;" d="M299.667 233.333C299.222 233.778 300.278 233.722 300.333 233.667C300.778 233.222 299.722 233.278 299.667 233.333z"/>
<path style="fill:#5e4c40; stroke:none;" d="M301 233C303.89 234.213 306.874 233.998 310 234C307.11 232.787 304.126 233.002 301 233z"/>
<path style="fill:#9c7a65; stroke:none;" d="M310 233L311 234L310 233z"/>
<path style="fill:#c6b3a8; stroke:none;" d="M145 234L146 235L145 234z"/>
<path style="fill:#a98e7d; stroke:none;" d="M365 234L366 235L365 234z"/>
<path style="fill:#cab7ab; stroke:none;" d="M147 235L148 236L147 235z"/>
<path style="fill:#ae927f; stroke:none;" d="M363 235L364 236L363 235z"/>
<path style="fill:#ceb9ac; stroke:none;" d="M149.667 236.333C149.222 236.778 150.278 236.722 150.333 236.667C150.778 236.222 149.722 236.278 149.667 236.333z"/>
<path style="fill:#8c7f76; stroke:none;" d="M360.667 236.333C360.222 236.778 361.278 236.722 361.333 236.667C361.778 236.222 360.722 236.278 360.667 236.333z"/>
<path style="fill:#a79991; stroke:none;" d="M153 237L153 268C154.328 264.834 154 261.419 154 258C154 251.58 155.497 242.951 153 237z"/>
<path style="fill:#cbab97; stroke:none;" d="M358 237L358 268C359.328 264.834 359 261.419 359 258C359 251.58 360.497 242.951 358 237z"/>
<path style="fill:#bfafa3; stroke:none;" d="M154 268L155 269L154 268z"/>
<path style="fill:#a79385; stroke:none;" d="M356 270L357 271L356 270z"/>
<path style="fill:#bba89d; stroke:none;" d="M156 271L157 272L156 271z"/>
<path style="fill:#a79385; stroke:none;" d="M354 273L355 274L354 273z"/>
<path style="fill:#bba89d; stroke:none;" d="M158 274L159 275L158 274z"/>
<path style="fill:#a79385; stroke:none;" d="M352 276L353 277L352 276z"/>
<path style="fill:#bba89d; stroke:none;" d="M160 277L161 278L160 277M162 280L163 281L162 280z"/>
<path style="fill:#b6a69c; stroke:none;" d="M164 283L165 284L164 283z"/>
<path style="fill:#b1a199; stroke:none;" d="M166 286L167 287L166 286M168 289L169 290L168 289M170 292L171 293L170 292M172 295L173 296L172 295z"/>
<path style="fill:#b19f93; stroke:none;" d="M174 298L175 299L174 298z"/>
<path style="fill:#d56d59; stroke:none;" d="M214 309C221.159 312.004 232.256 310 240 310L299 310C294.139 305.972 287.746 303.67 282 301.14C279.129 299.875 276.252 298.153 273 298.484C267.275 299.067 262.808 303.675 257 303.93C250.282 304.224 245.446 298.931 239 298.434C231.615 297.864 220.431 305.572 214 309z"/>
<path style="fill:#a79991; stroke:none;" d="M176 301L177 302L176 301z"/>
<path style="fill:#e9a793; stroke:none;" d="M251 303C252.769 303.779 254.036 303.912 256 304C254.231 303.221 252.964 303.088 251 303z"/>
<path style="fill:#e9977b; stroke:none;" d="M256 303C258.052 303.874 259.747 303.953 262 304C259.948 303.126 258.253 303.047 256 303z"/>
<path style="fill:#a79991; stroke:none;" d="M178 304L179 305L178 304z"/>
<path style="fill:#ecab97; stroke:none;" d="M221 305L222 306L221 305M219 306L220 307L219 306z"/>
<path style="fill:#a79991; stroke:none;" d="M180 307L181 308L180 307z"/>
<path style="fill:#e9a793; stroke:none;" d="M212 310C214.89 311.213 217.874 310.998 221 311C218.067 309.737 215.16 309.654 212 310z"/>
<path style="fill:#e18b73; stroke:none;" d="M256 310C260.469 311.875 266.191 311 271 311L301 311C297.183 308.793 291.402 310 287 310L256 310z"/>
<path style="fill:#a79991; stroke:none;" d="M182 310L183 311L182 310z"/>
<path style="fill:#df9181; stroke:none;" d="M221 310C225.183 315.139 233.374 322.209 240 323.697C245.891 325.02 252.978 324 259 324C263.713 324 269.496 324.875 274 323.272C280.102 321.101 285.669 315.627 291 312C284.322 309.198 274.216 311 267 311C251.704 310.999 236.362 310 221 310z"/>
<path style="fill:#a8978d; stroke:none;" d="M184 313L185 314L184 313z"/>
<path style="fill:#9f938b; stroke:none;" d="M186 316L187 317L186 316M188 319L189 320L188 319M190 322L191 323L190 322z"/>
<path style="fill:#ceb9ac; stroke:none;" d="M191 323L192 324L191 323z"/>
<path style="fill:#e79d89; stroke:none;" d="M240 324C243.699 325.552 248.017 325 252 325L273 325C269.301 323.448 264.983 324 261 324L240 324z"/>
<path style="fill:#9f938b; stroke:none;" d="M192 325L193 326L192 325z"/>
<path style="fill:#ceb9ac; stroke:none;" d="M193 326L194 327L193 326z"/>
<path style="fill:#b99f8d; stroke:none;" d="M317 328L318 329L317 328z"/>
<path style="fill:#ceb9ac; stroke:none;" d="M195 329L196 330L195 329z"/>
<path style="fill:#b49c8c; stroke:none;" d="M315 331L316 332L315 331z"/>
<path style="fill:#c9b5a7; stroke:none;" d="M197 332L198 333L197 332z"/>
<path style="fill:#b49c8c; stroke:none;" d="M313 334L314 335L313 334z"/>
<path style="fill:#c9b5a7; stroke:none;" d="M199 335L200 336L199 335z"/>
<path style="fill:#b49c8c; stroke:none;" d="M311 337L312 338L311 337z"/>
<path style="fill:#c6b2a5; stroke:none;" d="M201 338L202 339L201 338z"/>
<path style="fill:#a79385; stroke:none;" d="M309 340L310 341L309 340z"/>
<path style="fill:#c6b2a5; stroke:none;" d="M203 341L204 342L203 341z"/>
<path style="fill:#a79385; stroke:none;" d="M307 343L308 344L307 343z"/>
<path style="fill:#c6b2a5; stroke:none;" d="M205 344L206 345L205 344z"/>
<path style="fill:#a79385; stroke:none;" d="M305 346L306 347L305 346z"/>
<path style="fill:#bfafa3; stroke:none;" d="M207 347L208 348L207 347z"/>
<path style="fill:#a79385; stroke:none;" d="M303 349L304 350L303 349z"/>
<path style="fill:#bfafa3; stroke:none;" d="M209 350L210 351L209 350z"/>
<path style="fill:#a79385; stroke:none;" d="M301 352L302 353L301 352z"/>
<path style="fill:#fdb385; stroke:none;" d="M300 354C295.712 361.702 290.226 368.68 285.333 376C283.111 379.325 280.906 383.867 276.96 385.397C271.144 387.65 262.192 386 256 386L256 427C267.136 420.563 276.372 409.762 286 401.285C290.375 397.434 297.234 393.196 299.972 387.961C301.508 385.024 301 381.2 301 378C301 370.785 302.802 360.677 300 354z"/>
<path style="fill:#ffe3d1; stroke:none;" d="M211 385L211 427C211 432.326 209.405 440.747 211.603 445.671C213.331 449.542 219.525 452.096 223 454.139C233.186 460.128 244.557 470.056 256 473L256 443C256 438.419 257.02 432.355 255.397 428.004C253.45 422.786 246.849 418.829 243 414.999C232.869 404.917 222.693 393.236 211 385z"/>
<path style="fill:#b4b3b3; stroke:none;" d="M191 426C196.715 428.398 204.831 427 211 427C205.285 424.602 197.169 426 191 426M301 426C306.715 428.398 314.831 427 321 427C315.285 424.602 307.169 426 301 426z"/>
<path style="fill:#ffffff; stroke:none;" d="M221 510C227.265 505.587 231.706 499.442 237.015 494C243.322 487.535 251.261 481.39 255 473C241.308 464.727 227.489 456.55 214 447.946C207.923 444.07 202.529 439.102 196 436C200.853 434.565 205.964 435 211 435L211 427C205.576 427 197.235 425.419 192.213 427.603C186.583 430.053 182.524 441.762 185.059 447C195.546 468.66 211.478 487.903 221 510M301 427L301 435L315 435C297.399 450.328 276.345 460.2 257 473C259.613 478.603 264.666 482.673 269 487C276.77 494.758 285.043 503.691 294 510C301.19 492.734 311.819 476.697 320.248 460C322.581 455.377 325.9 450.897 327.604 446C329.311 441.095 325.007 430.833 320.61 428.028C316.044 425.115 306.276 427 301 427z"/>
<path style="fill:#9a9795; stroke:none;" d="M322 429L323 430L322 429M188 431L189 432L188 431z"/>
<path style="fill:#9f9c9a; stroke:none;" d="M323 431L324 432L323 431M187 433L188 434L187 433z"/>
<path style="fill:#a4a2a0; stroke:none;" d="M324 433L325 434L324 433M186 435L187 436L186 435z"/>
<path style="fill:#e1e1e1; stroke:none;" d="M196 435C200.007 437.317 206.362 436 211 436C206.529 434.124 200.817 435 196 435z"/>
<path style="fill:#d7d7d7; stroke:none;" d="M301 435L301 446C306.284 443.368 311.285 439.593 315 435L301 435z"/>
<path style="fill:#a8a7a6; stroke:none;" d="M325 435L326 436L325 435z"/>
<path style="fill:#d7d7d7; stroke:none;" d="M198 436C201.46 440.251 206.1 443.56 211 446L211 436L198 436z"/>
<path style="fill:#a8a7a6; stroke:none;" d="M185 437L186 438L185 437z"/>
<path style="fill:#aeacaa; stroke:none;" d="M326 437L327 438L326 437M184 439L185 440L184 439z"/>
<path style="fill:#b4b2b0; stroke:none;" d="M327 439L328 440L327 439z"/>
<path style="fill:#b4b3b3; stroke:none;" d="M183 441L184 442L183 441M328 441L329 442L328 441z"/>
<path style="fill:#c39701; stroke:none;" d="M130 464C130.955 475.697 135.031 487.628 137.873 499C138.683 502.239 138.974 508.778 141.738 510.972C145.116 513.653 153.896 512 158 512L202 512L373 512C373.693 496.1 380.694 480.674 383 465C365.225 458.106 347.384 449.028 329 444C322.458 455.093 316.815 466.678 310.691 478C305.011 488.502 298.591 498.972 294 510C284.695 503.446 277.137 493.952 269 486.015C265.958 483.047 261.279 477.358 257 476.342C253.118 475.42 249.355 480.584 247.039 483C239.232 491.147 228.19 499.996 223 510L221 510C213.713 493.09 202.625 476.825 193.201 461C190.753 456.89 187.004 446.034 181.895 444.932C177.567 443.998 170.937 448.225 167 449.8C154.917 454.633 142.543 460.569 130 464z"/>
<path style="fill:#dcc268; stroke:none;" d="M183 444L184 445L183 444z"/>
<path style="fill:#e1ca7d; stroke:none;" d="M328 444L329 445L328 444z"/>
<path style="fill:#ddc570; stroke:none;" d="M327 446L328 447L327 446z"/>
<path style="fill:#ebdcaa; stroke:none;" d="M185 447L186 448L185 447z"/>
<path style="fill:#dabe60; stroke:none;" d="M326 448L327 449L326 448z"/>
<path style="fill:#e2cc83; stroke:none;" d="M186 449L187 450L186 449z"/>
<path style="fill:#d6b74f; stroke:none;" d="M325 450L326 451L325 450z"/>
<path style="fill:#d9bb5b; stroke:none;" d="M187 451L188 452L187 451z"/>
<path style="fill:#ede1b6; stroke:none;" d="M323 453L324 454L323 453z"/>
<path style="fill:#e8d69c; stroke:none;" d="M189 454L190 455L189 454z"/>
<path style="fill:#e9daa4; stroke:none;" d="M322 455L323 456L322 455z"/>
<path style="fill:#dfc877; stroke:none;" d="M190 456L191 457L190 456z"/>
<path style="fill:#e6d494; stroke:none;" d="M321 457L322 458L321 457z"/>
<path style="fill:#d6b74f; stroke:none;" d="M191 458L192 459L191 458z"/>
<path style="fill:#e2cc83; stroke:none;" d="M320 459L321 460L320 459z"/>
<path style="fill:#e6d494; stroke:none;" d="M193 461L194 462L193 461z"/>
<path style="fill:#ddc570; stroke:none;" d="M319 461L320 462L319 461z"/>
<path style="fill:#dcc268; stroke:none;" d="M194 463L195 464L194 463z"/>
<path style="fill:#dabe60; stroke:none;" d="M318 463L319 464L318 463z"/>
<path style="fill:#af8701; stroke:none;" d="M129 465C116.164 479.74 102.78 495.7 92 512L141 512C139.041 501.899 136.256 492.006 133.884 482C132.554 476.388 132.036 469.971 129 465z"/>
<path style="fill:#d6b74f; stroke:none;" d="M317 465L318 466L317 465z"/>
<path style="fill:#eddfb1; stroke:none;" d="M196 466L197 467L196 466z"/>
<path style="fill:#af8701; stroke:none;" d="M383 466C378.512 480.035 373.306 497.24 373 512L420 512C414.202 503.226 407.084 495.312 400.65 487C395.202 479.961 389.936 471.61 383 466z"/>
<path style="fill:#e2cc83; stroke:none;" d="M197 468L198 469L197 468z"/>
<path style="fill:#efe3bb; stroke:none;" d="M315 468L316 469L315 468z"/>
<path style="fill:#dabe60; stroke:none;" d="M198 470L199 471L198 470z"/>
<path style="fill:#ebdcaa; stroke:none;" d="M314 470L315 471L314 470z"/>
<path style="fill:#e6d494; stroke:none;" d="M313 472L314 473L313 472z"/>
<path style="fill:#e9daa4; stroke:none;" d="M200 473L201 474L200 473z"/>
<path style="fill:#f3dbb3; stroke:none;" d="M255 473L255 475L257 475L257 473L255 473z"/>
<path style="fill:#e2cc83; stroke:none;" d="M312 474L313 475L312 474z"/>
<path style="fill:#e1ca7d; stroke:none;" d="M201 475L202 476L201 475z"/>
<path style="fill:#e8d69c; stroke:none;" d="M254 475L255 476L254 475z"/>
<path style="fill:#dcc268; stroke:none;" d="M257 475L258 476L257 475z"/>
<path style="fill:#ebdcaa; stroke:none;" d="M253 476L254 477L253 476z"/>
<path style="fill:#dabe60; stroke:none;" d="M258 476L259 477L258 476z"/>
<path style="fill:#dfc877; stroke:none;" d="M311 476L312 477L311 476z"/>
<path style="fill:#d8ba56; stroke:none;" d="M202 477L203 478L202 477z"/>
<path style="fill:#ede1b6; stroke:none;" d="M252 477L253 478L252 477z"/>
<path style="fill:#d9bb5b; stroke:none;" d="M259 477L260 478L259 477z"/>
<path style="fill:#efe3bb; stroke:none;" d="M251 478L252 479L251 478z"/>
<path style="fill:#d8ba56; stroke:none;" d="M260 478L261 479L260 478z"/>
<path style="fill:#dcc268; stroke:none;" d="M310 478L311 479L310 478z"/>
<path style="fill:#d4b446; stroke:none;" d="M261 479L262 480L261 479z"/>
<path style="fill:#e6d494; stroke:none;" d="M204 480L205 481L204 480z"/>
<path style="fill:#d4b446; stroke:none;" d="M262 480L263 481L262 480z"/>
<path style="fill:#d8ba56; stroke:none;" d="M309 480L310 481L309 480z"/>
<path style="fill:#ddc570; stroke:none;" d="M205 482L206 483L205 482z"/>
<path style="fill:#efe3bb; stroke:none;" d="M307 483L308 484L307 483z"/>
<path style="fill:#d4b446; stroke:none;" d="M206 484L207 485L206 484z"/>
<path style="fill:#ede1b6; stroke:none;" d="M207 485L208 486L207 485z"/>
<path style="fill:#ebdcaa; stroke:none;" d="M306 485L307 486L306 485z"/>
<path style="fill:#e5d18d; stroke:none;" d="M208 487L209 488L208 487z"/>
<path style="fill:#e8d69c; stroke:none;" d="M305 487L306 488L305 487z"/>
<path style="fill:#d4b446; stroke:none;" d="M242 488L243 489L242 488z"/>
<path style="fill:#dcc268; stroke:none;" d="M209 489L210 490L209 489z"/>
<path style="fill:#d4b446; stroke:none;" d="M241 489L242 490L241 489z"/>
<path style="fill:#e5d18d; stroke:none;" d="M304 489L305 490L304 489z"/>
<path style="fill:#d8ba56; stroke:none;" d="M240 490L241 491L240 490z"/>
<path style="fill:#dcc268; stroke:none;" d="M239 491L240 492L239 491z"/>
<path style="fill:#dfc877; stroke:none;" d="M303 491L304 492L303 491z"/>
<path style="fill:#ebdcaa; stroke:none;" d="M211 492L212 493L211 492z"/>
<path style="fill:#dcc268; stroke:none;" d="M238 492L239 493L238 492z"/>
<path style="fill:#e2cc83; stroke:none;" d="M237 493L238 494L237 493z"/>
<path style="fill:#dcc268; stroke:none;" d="M302 493L303 494L302 493z"/>
<path style="fill:#e2cc83; stroke:none;" d="M212 494L213 495L212 494z"/>
<path style="fill:#e6d494; stroke:none;" d="M236 494L237 495L236 494z"/>
<path style="fill:#e9daa4; stroke:none;" d="M235 495L236 496L235 495z"/>
<path style="fill:#efe3bb; stroke:none;" d="M278 495L279 496L278 495z"/>
<path style="fill:#d8ba56; stroke:none;" d="M301 495L302 496L301 495z"/>
<path style="fill:#d9bb5b; stroke:none;" d="M213 496L214 497L213 496z"/>
<path style="fill:#ebdcaa; stroke:none;" d="M234 496L235 497L234 496z"/>
<path style="fill:#ede1b6; stroke:none;" d="M279 496L280 497L279 496M233 497L234 498L233 497z"/>
<path style="fill:#eddfb1; stroke:none;" d="M280 497L281 498L280 497z"/>
<path style="fill:#d4b446; stroke:none;" d="M300 497L301 498L300 497z"/>
<path style="fill:#efe3bb; stroke:none;" d="M232 498L233 499L232 498z"/>
<path style="fill:#ebdcaa; stroke:none;" d="M281 498L282 499L281 498z"/>
<path style="fill:#e8d69c; stroke:none;" d="M215 499L216 500L215 499z"/>
<path style="fill:#e9daa4; stroke:none;" d="M282 499L283 500L282 499z"/>
<path style="fill:#e8d69c; stroke:none;" d="M283 500L284 501L283 500z"/>
<path style="fill:#eddeae; stroke:none;" d="M298 500L299 501L298 500z"/>
<path style="fill:#dfc877; stroke:none;" d="M216 501L217 502L216 501z"/>
<path style="fill:#e6d494; stroke:none;" d="M284 501L285 502L284 501z"/>
<path style="fill:#e5d18d; stroke:none;" d="M285 502L286 503L285 502z"/>
<path style="fill:#e8d69c; stroke:none;" d="M297 502L298 503L297 502z"/>
<path style="fill:#d6b74f; stroke:none;" d="M217 503L218 504L217 503z"/>
<path style="fill:#e1ca7d; stroke:none;" d="M286 503L287 504L286 503z"/>
<path style="fill:#efe3bb; stroke:none;" d="M218 504L219 505L218 504z"/>
<path style="fill:#ddc570; stroke:none;" d="M287 504L288 505L287 504z"/>
<path style="fill:#e5d18d; stroke:none;" d="M296 504L297 505L296 504z"/>
<path style="fill:#dcc268; stroke:none;" d="M288 505L289 506L288 505z"/>
<path style="fill:#e6d494; stroke:none;" d="M219 506L220 507L219 506z"/>
<path style="fill:#d9bb5b; stroke:none;" d="M289 506L290 507L289 506z"/>
<path style="fill:#e1ca7d; stroke:none;" d="M295 506L296 507L295 506z"/>
<path style="fill:#d8ba56; stroke:none;" d="M290 507L291 508L290 507z"/>
<path style="fill:#dcc268; stroke:none;" d="M220 508L221 509L220 508z"/>
<path style="fill:#d4b446; stroke:none;" d="M223 508L224 509L223 508z"/>
<path style="fill:#d6b74f; stroke:none;" d="M291 508L292 509L291 508z"/>
<path style="fill:#dcc268; stroke:none;" d="M294 508L295 509L294 508z"/>
<path style="fill:#d8ba56; stroke:none;" d="M222 509L223 510L222 509z"/>
<path style="fill:#d4b446; stroke:none;" d="M292 509L293 510L292 509z"/>
</svg>
