<?xml version="1.0" standalone="yes"?>
<svg xmlns="http://www.w3.org/2000/svg" width="512" height="512">
<path style="fill:#6b6765; stroke:none;" d="M0 0L0 512L65 512C72.4231 512 85.2886 514.462 91.9606 510.972C96.79 508.446 100.158 502.186 103.424 498C111.175 488.068 118.669 477.234 127.289 468.055C131.733 463.323 138.126 461.55 144 459.2C155.727 454.509 168.759 450.962 179.867 444.945C186.211 441.509 186.243 432.158 191.61 427.603C195.779 424.065 205.819 426 211 426L211 375C211 368.04 212.648 358.578 210.157 352C206.571 342.532 198.248 333.235 192.424 325C183.402 312.241 175.002 299.002 166.333 286C162.268 279.901 155.805 273.004 153.563 266C150.89 257.646 153 245.749 153 237C121.738 231.424 127 192.015 127 169L153 169L153 100L153 81C153.001 78.235 152.539 74.8059 154.028 72.3256C155.717 69.5121 159.309 67.8618 162 66.1921L177 56.8079C195.043 45.6261 213.017 34.3287 231 23.0501L248 12.4236C250.338 10.9729 253.125 8.71594 256 8.66049C258.924 8.6041 261.653 10.8453 264 12.3187L281 22.9499C299.314 34.4363 317.711 45.7917 336 57.3187C342.169 61.2065 354.235 65.8107 357.972 72.2099C359.45 74.7405 358.999 78.1933 359 81L359 100L359 169L383 169C383 185.485 386.962 207.383 378.073 222C375.258 226.629 371.53 230.283 367 233.236C364.707 234.731 360.847 235.67 359.603 238.302C358.435 240.776 359 244.345 359 247C359 254.41 360.527 263.4 356.612 270C344.816 289.889 330.505 308.742 317.667 328C312.555 335.668 304.627 344.224 301.702 353C299.365 360.012 301 369.663 301 377L301 426C306.268 426 316.178 424.086 320.471 427.603C326.319 432.395 325.911 442.028 333.055 445.557C344.204 451.065 356.459 454.783 368 459.4C373.805 461.722 380.258 463.497 384.711 468.105C393.483 477.184 400.719 488.144 408.6 498C411.889 502.113 415.269 508.473 420.039 510.972C426.706 514.464 439.581 512 447 512L512 512L512 0L0 0z"/>
<path style="fill:#fdd4bb; stroke:none;" d="M173 176C186.683 172.757 200.53 165.914 215 168.326C228.973 170.654 242.856 180.924 257 180.97C263.949 180.992 268.923 177.225 275 174.515C281.977 171.404 290.446 169.379 298 168.3C312.076 166.289 325.715 172.374 339 176L339 133C339 126.853 337.713 119.043 339.318 113.09C341.182 106.174 351.251 102.856 355.682 97.7106C359.627 93.1295 358.012 84.6485 358 79C357.995 76.7661 358.248 74.2135 357.397 72.0934C355.664 67.7794 349.71 65.3768 346 63.0501L316 44.3187C302.698 35.935 289.302 27.7023 276 19.3187C270.716 15.988 263.234 9.10587 257 8.14505C254.048 7.69012 251.343 9.94156 249 11.4136L232 22.0501C214.017 33.3287 196.043 44.6261 178 55.8079L163 65.1921C160.309 66.8619 156.717 68.5121 155.028 71.3256C153.685 73.562 154.005 76.5035 154 79C153.987 85.3163 152.335 93.8128 157.148 98.6999C161.523 103.142 170.959 106.72 172.682 113.09C174.291 119.038 173 126.857 173 133L173 176z"/>
<path style="fill:#c99517; stroke:none;" d="M252 9L253 10L252 9M261 10L262 11L261 10M247 12L248 13L247 12M244 14L245 15L244 14M269 15L270 16L269 15M239 17L240 18L239 17M236 19L237 20L236 19M277 20L278 21L277 20M231 22L232 23L231 22M228 24L229 25L228 24M285 25L286 26L285 25M223 27L224 28L223 27M220 29L221 30L220 29M293 30L294 31L293 30M215 32L216 33L215 32M212 34L213 35L212 34M301 35L302 36L301 35M207 37L208 38L207 37M204 39L205 40L204 39M309 40L310 41L309 40M199 42L200 43L199 42M196 44L197 45L196 44M317 45L318 46L317 45M191 47L192 48L191 47M188 49L189 50L188 49M325 50L326 51L325 50M183 52L184 53L183 52M180 54L181 55L180 54M333 55L334 56L333 55M175 57L176 58L175 57M172 59L173 60L172 59M341 60L342 61L341 60M167 62L168 63L167 62M164 64L165 65L164 64M349 65L350 66L349 65M159 67L160 68L159 67M156 69L157 70L156 69M357 70L358 71L357 70M153 71L153 169C155.903 162.081 154 151.48 154 144C154 126.362 154.597 108.607 154.035 91C153.836 84.7547 155.435 76.8026 153 71M358 71L358 169C360.701 162.564 359 152.951 359 146L359 96C359 88.5202 360.903 77.9187 358 71z"/>
<path style="fill:#6b6765; stroke:none;" d="M154 97L154 178L174 177C170.532 162.432 173 144.951 173 130C173 124.575 174.606 115.988 171.972 111.09C168.936 105.443 159.715 99.5466 154 97M356 97L357 98L356 97z"/>
<path style="fill:#2129a9; stroke:none;" d="M357 97C351.781 100.752 343.13 105.34 340.028 111.09C337.39 115.979 339 124.582 339 130L339 176C326.028 172.927 312.634 166.357 299 168.3C291.18 169.415 282.288 171.406 275 174.465C269.18 176.907 263.625 181.631 257 181.631C252.228 181.631 247.42 178.878 243 177.344C230.774 173.1 217.215 166.759 204 168.174C193.78 169.268 183.727 173.082 174 176.096C170.652 177.134 166.379 176.727 163.318 178.514C160.333 180.256 160.313 185.806 162.741 188.062C164.374 189.58 166.923 189.71 169 190C169.43 200.026 171.005 211.895 177.39 219.999C189.771 235.713 216.018 237.842 230.826 224.381C238.284 217.602 240.353 208.297 245.353 200.004C247.587 196.297 251.319 192.436 256 192.543C262.917 192.701 266.666 199.443 268.988 205C272.72 213.93 276.599 222.369 285 227.892C299.556 237.461 324.558 234.684 334.779 219.996C340.214 212.187 340.082 203.7 342.723 195.019C343.912 191.113 346.803 190.934 349.258 188.277C351.827 185.497 350.949 181.218 350 178L358 178L358 122C358 114.52 359.903 103.919 357 97z"/>
<path style="fill:#c99517; stroke:none;" d="M353 99L354 100L353 99M159 100L160 101L159 100z"/>
<path style="fill:#6b6765; stroke:none;" d="M352 100L353 101L352 100z"/>
<path style="fill:#c99517; stroke:none;" d="M163 103L164 104L163 103M348 103L349 104L348 103z"/>
<path style="fill:#6b6765; stroke:none;" d="M347 104L348 105L347 104z"/>
<path style="fill:#c99517; stroke:none;" d="M344 106L345 107L344 106M168 107L169 108L168 107z"/>
<path style="fill:#6b6765; stroke:none;" d="M343 107L344 108L343 107z"/>
<path style="fill:#c99517; stroke:none;" d="M172 110L173 111L172 110M339 110L340 111L339 110z"/>
<path style="fill:#6b6765; stroke:none;" d="M200.667 168.333C200.222 168.778 201.278 168.722 201.333 168.667C201.778 168.222 200.722 168.278 200.667 168.333M214 168C215.248 168.685 215.548 168.749 217 169C215.752 168.315 215.452 168.251 214 168M296.667 168.333C296.222 168.778 297.278 168.722 297.333 168.667C297.778 168.222 296.722 168.278 296.667 168.333z"/>
<path style="fill:#c99517; stroke:none;" d="M311.667 168.333C311.222 168.778 312.278 168.722 312.333 168.667C312.778 168.222 311.722 168.278 311.667 168.333M127 169L127 209C130.206 201.361 128 189.271 128 181C128 177.017 128.552 172.699 127 169z"/>
<path style="fill:#fdd4bb; stroke:none;" d="M128 169C128 183.675 125.115 201.886 129.443 216C132.691 226.591 142.636 236.409 154 237C154 246.342 151.737 259.103 154.702 268C157.175 275.42 163.684 282.526 168 289L196.667 332C200.915 338.372 206.91 344.965 209.911 352C212.679 358.488 211 368.055 211 375L211 426C205.751 426 197.189 424.346 192.39 426.603C187.674 428.822 182.38 441.263 184.243 446C187.1 453.267 192.277 460.215 196.15 467C204.354 481.37 212.596 495.749 221 510C230.635 503.213 237.78 493.322 246.004 485C248.501 482.473 252.174 477.25 256 476.886C260.158 476.49 264.421 482.425 267 485C275.602 493.589 283.812 503.261 294 510C301.976 496.335 308.78 481.921 316.309 468C320.107 460.978 325.438 453.565 327.988 446C329.591 441.243 324.271 428.796 319.61 426.603C314.811 424.346 306.249 426 301 426L301 376C301 369.04 299.352 359.578 301.843 353C305.577 343.143 314.267 333.605 320.28 325C332.34 307.741 344.888 290.117 355.612 272C361.524 262.012 354.165 249.231 358.603 239.225C360.137 235.767 365.063 234.924 368 233.031C372.225 230.308 375.947 226.312 378.518 222C387.038 207.707 383 184.971 383 169L358 169L358 178L351 178C351.344 181.278 351.951 184.804 349.907 187.698C348.003 190.394 344.557 190.709 343.419 194.109C340.093 204.045 340.227 213.641 332.815 221.996C319.843 236.619 295.514 237.966 281.09 224.699C273.346 217.576 269.706 207.554 266 198C264.163 202.419 266.226 206.489 266.819 211C268.043 220.296 269.287 229.775 271 239C276.288 239.841 281.709 247.478 278.303 252.811C276.398 255.794 272.878 256.253 270.09 257.973C264.625 261.344 263.05 265.771 256 266L256 193C246.42 194.067 244.478 202.523 240.73 210C237.236 216.969 232.568 223.531 226 227.895C209.909 238.587 185.405 233.758 175.214 217C170.591 209.398 171.177 201.226 168.686 193.147C167.738 190.075 164.458 189.968 162.603 187.687C160.478 185.074 161.002 181.142 161 178L154 178L154 169L128 169z"/>
<path style="fill:#c99517; stroke:none;" d="M196 169L197 170L196 169z"/>
<path style="fill:#6b6765; stroke:none;" d="M197 169L198 170L197 169M219 169L220 170L219 169M292.667 169.333C292.222 169.778 293.278 169.722 293.333 169.667C293.778 169.222 292.722 169.278 292.667 169.333M315 169L316 170L315 169z"/>
<path style="fill:#c99517; stroke:none;" d="M316 169L317 170L316 169z"/>
<path style="fill:#6b6765; stroke:none;" d="M193 170L194 171L193 170M222 170L223 171L222 170z"/>
<path style="fill:#c99517; stroke:none;" d="M288 170L289 171L288 170z"/>
<path style="fill:#6b6765; stroke:none;" d="M318 170L319 171L318 170M187 171C188.248 171.685 188.548 171.749 190 172C188.752 171.315 188.452 171.251 187 171M225 171L226 172L225 171z"/>
<path style="fill:#c99517; stroke:none;" d="M283 171L284 172L283 171z"/>
<path style="fill:#6b6765; stroke:none;" d="M284.667 171.333C284.222 171.778 285.278 171.722 285.333 171.667C285.778 171.222 284.722 171.278 284.667 171.333M322.667 171.333C322.222 171.778 323.278 171.722 323.333 171.667C323.778 171.222 322.722 171.278 322.667 171.333z"/>
<path style="fill:#c99517; stroke:none;" d="M183 172L184 173L183 172z"/>
<path style="fill:#6b6765; stroke:none;" d="M184 172L185 173L184 172M228 172L229 173L228 172M280 172L281 173L280 172M327.667 172.333C327.222 172.778 328.278 172.722 328.333 172.667C328.778 172.222 327.722 172.278 327.667 172.333M180 173L181 174L180 173M231 173L232 174L231 173z"/>
<path style="fill:#c99517; stroke:none;" d="M232 173L233 174L232 173z"/>
<path style="fill:#6b6765; stroke:none;" d="M277 173L278 174L277 173M331 173L332 174L331 173M178 174L179 175L178 174M234 174L235 175L234 174z"/>
<path style="fill:#c99517; stroke:none;" d="M235 174L236 175L235 174z"/>
<path style="fill:#6b6765; stroke:none;" d="M274 174L275 175L274 174M333 174L334 175L333 174z"/>
<path style="fill:#c99517; stroke:none;" d="M334 174L335 175L334 174M175 175L176 176L175 175z"/>
<path style="fill:#6b6765; stroke:none;" d="M198 175C200.052 175.874 201.747 175.953 204 176C201.948 175.126 200.253 175.047 198 175z"/>
<path style="fill:#fdd4bb; stroke:none;" d="M204 175.424C196.396 176.435 184.987 176.386 179.97 183.188C176.157 188.359 176.76 195.031 177.755 201C180.364 216.658 191.515 230.849 209 228.546C225.162 226.418 234.805 214.615 237.739 199C238.823 193.23 239.623 187.01 235.57 182.108C229.246 174.458 213.038 174.223 204 175.424z"/>
<path style="fill:#c99517; stroke:none;" d="M215 175C216.769 175.779 218.036 175.912 220 176C218.231 175.221 216.964 175.088 215 175z"/>
<path style="fill:#6b6765; stroke:none;" d="M220.667 175.333C220.222 175.778 221.278 175.722 221.333 175.667C221.778 175.222 220.722 175.278 220.667 175.333M237 175L238 176L237 175z"/>
<path style="fill:#c99517; stroke:none;" d="M238 175L239 176L238 175z"/>
<path style="fill:#6b6765; stroke:none;" d="M272 175L273 176L272 175M290 175C291.248 175.685 291.548 175.749 293 176C291.752 175.315 291.452 175.251 290 175z"/>
<path style="fill:#c99517; stroke:none;" d="M293.667 175.333C293.222 175.778 294.278 175.722 294.333 175.667C294.778 175.222 293.722 175.278 293.667 175.333z"/>
<path style="fill:#fdd4bb; stroke:none;" d="M295 175.424C288.913 176.233 281.828 176.556 277.228 181.225C272.614 185.908 273.396 195.035 274.669 201C278.558 219.23 292.364 230.142 311 227.815C325.982 225.944 333.854 209.727 333.996 196C334.042 191.589 334.051 186.824 331.297 183.108C324.993 174.6 304.518 174.159 295 175.424z"/>
<path style="fill:#6b6765; stroke:none;" d="M306 175C307.769 175.779 309.036 175.912 311 176C309.231 175.221 307.964 175.088 306 175M336 175L337 176L336 175M193 176L194 177L193 176z"/>
<path style="fill:#c99517; stroke:none;" d="M194.667 176.333C194.222 176.778 195.278 176.722 195.333 176.667C195.778 176.222 194.722 176.278 194.667 176.333z"/>
<path style="fill:#6b6765; stroke:none;" d="M225.667 176.333C225.222 176.778 226.278 176.722 226.333 176.667C226.778 176.222 225.722 176.278 225.667 176.333M240 176L241 177L240 176M285.667 176.333C285.222 176.778 286.278 176.722 286.333 176.667C286.778 176.222 285.722 176.278 285.667 176.333z"/>
<path style="fill:#c99517; stroke:none;" d="M315 176L316 177L315 176z"/>
<path style="fill:#6b6765; stroke:none;" d="M316.667 176.333C316.222 176.778 317.278 176.722 317.333 176.667C317.778 176.222 316.722 176.278 316.667 176.333M189 177L190 178L189 177z"/>
<path style="fill:#c99517; stroke:none;" d="M190 177L191 178L190 177M228 177L229 178L228 177z"/>
<path style="fill:#6b6765; stroke:none;" d="M229 177L230 178L229 177M243 177L244 178L243 177M269 177L270 178L269 177M282 177L283 178L282 177z"/>
<path style="fill:#c99517; stroke:none;" d="M283 177L284 178L283 177z"/>
<path style="fill:#6b6765; stroke:none;" d="M321 177L322 178L321 177z"/>
<path style="fill:#c99517; stroke:none;" d="M161 178L162 179L161 178z"/>
<path style="fill:#6b6765; stroke:none;" d="M185 178L186 179L185 178z"/>
<path style="fill:#c99517; stroke:none;" d="M186 178L187 179L186 178z"/>
<path style="fill:#6b6765; stroke:none;" d="M231 178L232 179L231 178M246 178L247 179L246 178M267 178L268 179L267 178M280 178L281 179L280 178z"/>
<path style="fill:#c99517; stroke:none;" d="M324 178L325 179L324 178z"/>
<path style="fill:#6b6765; stroke:none;" d="M325 178L326 179L325 178M350 178L351 179L350 178M183 179L184 180L183 179M233 179L234 180L233 179M248 179L249 180L248 179z"/>
<path style="fill:#c99517; stroke:none;" d="M249 179L250 180L249 179z"/>
<path style="fill:#6b6765; stroke:none;" d="M265 179L266 180L265 179M327 179L328 180L327 179z"/>
<path style="fill:#c99517; stroke:none;" d="M359 179L359 226C377.586 219.681 373 194.261 373 179L359 179M164 180L165 181L164 180z"/>
<path style="fill:#fdd4bb; stroke:none;" d="M165 180C166.248 180.685 166.548 180.749 168 181C166.752 180.315 166.452 180.251 165 180z"/>
<path style="fill:#6b6765; stroke:none;" d="M168 180L169 181L168 180z"/>
<path style="fill:#c99517; stroke:none;" d="M182 180L183 181L182 180z"/>
<path style="fill:#6b6765; stroke:none;" d="M234 180L235 181L234 180M251 180L252 181L251 180M262 180L263 181L262 180M277 180L278 181L277 180M329 180L330 181L329 180M344 180L345 181L344 180z"/>
<path style="fill:#fdd4bb; stroke:none;" d="M345 180C346.248 180.685 346.548 180.749 348 181C346.752 180.315 346.452 180.251 345 180z"/>
<path style="fill:#c99517; stroke:none;" d="M348 180L349 181L348 180z"/>
<path style="fill:#6b6765; stroke:none;" d="M165 181C166.248 181.685 166.548 181.749 168 182C166.752 181.315 166.452 181.251 165 181z"/>
<path style="fill:#c99517; stroke:none;" d="M235 181L236 182L235 181z"/>
<path style="fill:#6b6765; stroke:none;" d="M254 181L255 182L254 181z"/>
<path style="fill:#c99517; stroke:none;" d="M255 181C256.506 181.683 257.315 181.826 259 182C257.494 181.317 256.685 181.174 255 181z"/>
<path style="fill:#6b6765; stroke:none;" d="M259 181L260 182L259 181M276 181L277 182L276 181M330 181L331 182L330 181z"/>
<path style="fill:#c99517; stroke:none;" d="M351 181L351 185C351.71 183.24 351.71 182.759 351 181z"/>
<path style="fill:#6b6765; stroke:none;" d="M236 182L237 183L236 182M275 182L276 183L275 182M331 182L332 183L331 182z"/>
<path style="fill:#c99517; stroke:none;" d="M179 183L180 184L179 183z"/>
<path style="fill:#6b6765; stroke:none;" d="M164.333 184.667C164.278 184.722 164.222 185.778 164.667 185.333C164.722 185.278 164.778 184.222 164.333 184.667z"/>
<path style="fill:#fdd4bb; stroke:none;" d="M165 184L165 186L168 186L168 184L165 184z"/>
<path style="fill:#6b6765; stroke:none;" d="M168.333 184.667C168.278 184.722 168.222 185.778 168.667 185.333C168.722 185.278 168.778 184.222 168.333 184.667M237 184L238 185L237 184M274 184L275 185L274 184z"/>
<path style="fill:#c99517; stroke:none;" d="M304 184C305.769 184.779 307.036 184.912 309 185C307.231 184.221 305.964 184.088 304 184z"/>
<path style="fill:#6b6765; stroke:none;" d="M332 184L333 185L332 184z"/>
<path style="fill:#c99517; stroke:none;" d="M345 184L345 186L348 186L348 184L345 184z"/>
<path style="fill:#6b6765; stroke:none;" d="M348.333 184.667C348.278 184.722 348.222 185.778 348.667 185.333C348.722 185.278 348.778 184.222 348.333 184.667z"/>
<path style="fill:#c99517; stroke:none;" d="M178 185L179 186L178 185z"/>
<path style="fill:#6b6765; stroke:none;" d="M203 185L204 186L203 185z"/>
<path style="fill:#2129a9; stroke:none;" d="M191 193C196.317 190.709 201.154 187.236 207 186.329C215.325 185.038 222.277 189.939 229 194C220.397 182.08 200.508 181.834 191 193z"/>
<path style="fill:#c99517; stroke:none;" d="M217 185L218 186L217 185M298 185L299 186L298 185z"/>
<path style="fill:#2129a9; stroke:none;" d="M286 195C288.997 193.026 291.782 190.618 295 188.999C306.281 183.324 314.632 188.533 325 193C315.604 182.039 293.362 181.458 286 195z"/>
<path style="fill:#6b6765; stroke:none;" d="M312 185L313 186L312 185M200 186L201 187L200 186M205 186C207.89 187.213 210.874 186.998 214 187C211.11 185.787 208.126 186.002 205 186M219 186L220 187L219 186z"/>
<path style="fill:#c99517; stroke:none;" d="M220 186L221 187L220 186z"/>
<path style="fill:#6b6765; stroke:none;" d="M295 186L296 187L295 186M302 186C304.613 187.098 307.164 186.993 310 187C307.387 185.902 304.836 186.007 302 186M315 186L316 187L315 186M333 186L334 187L333 186M161 187L162 188L161 187M177 187L178 188L177 187M202 187L203 188L202 187M217 187L218 188L217 187M222 187L223 188L222 187M238.333 187.667C238.278 187.722 238.222 188.778 238.667 188.333C238.722 188.278 238.778 187.222 238.333 187.667M273.333 187.667C273.278 187.722 273.222 188.778 273.667 188.333C273.722 188.278 273.778 187.222 273.333 187.667M293 187L294 188L293 187M298 187L299 188L298 187M313 187L314 188L313 187M317 187L318 188L317 187z"/>
<path style="fill:#c99517; stroke:none;" d="M333 187L334 188L333 187z"/>
<path style="fill:#6b6765; stroke:none;" d="M350 187L351 188L350 187M196 188L197 189L196 188M199 188L200 189L199 188M220 188L221 189L220 188z"/>
<path style="fill:#c99517; stroke:none;" d="M291 188L292 189L291 188z"/>
<path style="fill:#6b6765; stroke:none;" d="M295 188L296 189L295 188M316 188L317 189L316 188M319 188L320 189L319 188M163 189C164.248 189.685 164.548 189.749 166 190C164.752 189.315 164.452 189.251 163 189M194 189L195 190L194 189M197 189L198 190L197 189M208.667 189.333C208.222 189.778 209.278 189.722 209.333 189.667C209.778 189.222 208.722 189.278 208.667 189.333M225 189L226 190L225 189z"/>
<path style="fill:#c99517; stroke:none;" d="M273 189L273 194C273.83 191.97 273.83 191.03 273 189z"/>
<path style="fill:#6b6765; stroke:none;" d="M290 189L291 190L290 189M293 189L294 190L293 189M302 195C303.778 192.339 304.885 190.932 308 190C304.046 188.743 302.578 191.373 302 195M318 189L319 190L318 189M321 189L322 190L321 189M348 189L349 190L348 189z"/>
<path style="fill:#c99517; stroke:none;" d="M349 189L350 190L349 189z"/>
<path style="fill:#6b6765; stroke:none;" d="M168 190L169 191L168 190z"/>
<path style="fill:#2129a9; stroke:none;" d="M206 194C208.124 194.899 208.101 194.876 209 197C216.625 193.933 208.457 186.602 206 194z"/>
<path style="fill:#6b6765; stroke:none;" d="M212 190L213 191L212 190M226 190L227 191L226 190z"/>
<path style="fill:#2129a9; stroke:none;" d="M307 197C307.854 194.62 308.666 192.512 309 190C303.879 190.399 300.966 194.996 307 197z"/>
<path style="fill:#6b6765; stroke:none;" d="M334 190L334 199C335.256 196.006 335.256 192.994 334 190z"/>
<path style="fill:#c99517; stroke:none;" d="M344.667 190.333C344.222 190.778 345.278 190.722 345.333 190.667C345.778 190.222 344.722 190.278 344.667 190.333z"/>
<path style="fill:#6b6765; stroke:none;" d="M225 191L226 192L225 191M227 191L228 192L227 191M290 191L291 192L290 191M309 191L309 194C309.696 192.446 309.696 192.554 309 191z"/>
<path style="fill:#c99517; stroke:none;" d="M321 191L322 192L321 191M343.333 191.667C343.278 191.722 343.222 192.778 343.667 192.333C343.722 192.278 343.778 191.222 343.333 191.667z"/>
<path style="fill:#6b6765; stroke:none;" d="M192 192L193 193L192 192M213 192L213 195C213.696 193.446 213.696 193.554 213 192M228 192L229 193L228 192M253 192C254.769 192.779 256.036 192.912 258 193C256.231 192.221 254.964 192.088 253 192M323 192L324 193L323 192z"/>
<path style="fill:#2129a9; stroke:none;" d="M190 193L191 194L190 193z"/>
<path style="fill:#c99517; stroke:none;" d="M251 193L252 194L251 193M256 193L256 266C263.665 265.909 265.058 261.57 271.039 257.973C273.758 256.338 277.313 255.903 278.932 252.811C281.924 247.097 276.671 239.441 271 239C269.617 228.058 268.536 216.725 266 206C264.37 199.109 264.252 193.92 256 193z"/>
<path style="fill:#6b6765; stroke:none;" d="M260 193L261 194L260 193z"/>
<path style="fill:#c99517; stroke:none;" d="M286 193L287 194L286 193z"/>
<path style="fill:#2129a9; stroke:none;" d="M325 193L326 194L325 193z"/>
<path style="fill:#6b6765; stroke:none;" d="M189 194L190 195L189 194M208 194L209 195L208 194z"/>
<path style="fill:#2129a9; stroke:none;" d="M229 194L230 195L229 194z"/>
<path style="fill:#c99517; stroke:none;" d="M238 194L238 197C238.696 195.446 238.696 195.554 238 194z"/>
<path style="fill:#6b6765; stroke:none;" d="M249 194L250 195L249 194M262 194L263 195L262 194M273 194L273 197C273.696 195.446 273.696 195.554 273 194z"/>
<path style="fill:#c99517; stroke:none;" d="M307 194L308 195L307 194z"/>
<path style="fill:#6b6765; stroke:none;" d="M326 194L327 195L326 194M169 195L169 198C169.696 196.446 169.696 196.554 169 195z"/>
<path style="fill:#c99517; stroke:none;" d="M188 195L189 196L188 195M248 195L249 196L248 195z"/>
<path style="fill:#6b6765; stroke:none;" d="M263 195L264 196L263 195M285 195L286 196L285 195M327 195L328 196L327 195M342 195L342 198C342.696 196.446 342.696 196.554 342 195M211 196L212 197L211 196z"/>
<path style="fill:#c99517; stroke:none;" d="M247 196L248 197L247 196z"/>
<path style="fill:#6b6765; stroke:none;" d="M264 196L265 197L264 196M246 197L247 198L246 197M265 197L266 198L265 197z"/>
<path style="fill:#c99517; stroke:none;" d="M169.333 198.667C169.278 198.722 169.222 199.778 169.667 199.333C169.722 199.278 169.778 198.222 169.333 198.667M190 198C196.778 204.791 209.013 205.125 218 203.536C221.784 202.867 225.748 202.228 228 199C221.1 199.891 214.004 202.215 207 201.896C201.143 201.629 195.597 199.496 190 198M288 199C290.492 203.076 295.428 203.753 300 203.961C309.212 204.379 317.838 203.594 326 199C321.838 198.258 317.337 200.763 313 200.961C304.379 201.353 296.473 200.094 288 199M342.333 198.667C342.278 198.722 342.222 199.778 342.667 199.333C342.722 199.278 342.778 198.222 342.333 198.667M177 199L177 202C177.696 200.446 177.696 200.554 177 199M245 199L246 200L245 199M266 199L267 200L266 199M237 200L238 201L237 200M274 200L275 201L274 200z"/>
<path style="fill:#6b6765; stroke:none;" d="M237 201L238 202L237 201z"/>
<path style="fill:#c99517; stroke:none;" d="M244 201L245 202L244 201z"/>
<path style="fill:#6b6765; stroke:none;" d="M267 201L268 202L267 201M274 201L275 202L274 201M170.333 202.667C170.278 202.722 170.222 203.778 170.667 203.333C170.722 203.278 170.778 202.222 170.333 202.667M333.333 202.667C333.278 202.722 333.222 203.778 333.667 203.333C333.722 203.278 333.778 202.222 333.333 202.667M341.333 202.667C341.278 202.722 341.222 203.778 341.667 203.333C341.722 203.278 341.778 202.222 341.333 202.667M243 203L244 204L243 203M268 203L269 204L268 203z"/>
<path style="fill:#c99517; stroke:none;" d="M170 204L171 205L170 204M236 204L237 205L236 204M268 204L269 205L268 204M275 204L276 205L275 204z"/>
<path style="fill:#6b6765; stroke:none;" d="M178.333 205.667C178.278 205.722 178.222 206.778 178.667 206.333C178.722 206.278 178.778 205.222 178.333 205.667M236 205L237 206L236 205M242 205L243 206L242 205M275 205L276 206L275 205z"/>
<path style="fill:#c99517; stroke:none;" d="M242 206L243 207L242 206z"/>
<path style="fill:#6b6765; stroke:none;" d="M269 206L270 207L269 206M332 206L333 207L332 206M340.333 206.667C340.278 206.722 340.222 207.778 340.667 207.333C340.722 207.278 340.778 206.222 340.333 206.667M171.333 207.667C171.278 207.722 171.222 208.778 171.667 208.333C171.722 208.278 171.778 207.222 171.333 207.667M235 207L236 208L235 207M276 207L277 208L276 207z"/>
<path style="fill:#c99517; stroke:none;" d="M179 208L180 209L179 208M241 208L242 209L241 208z"/>
<path style="fill:#6b6765; stroke:none;" d="M270 208L271 209L270 208z"/>
<path style="fill:#c99517; stroke:none;" d="M234 209L235 210L234 209M270 209L271 210L270 209M277 209L278 210L277 209z"/>
<path style="fill:#6b6765; stroke:none;" d="M331 209L332 210L331 209z"/>
<path style="fill:#c99517; stroke:none;" d="M382 209L382 212C382.696 210.446 382.696 210.554 382 209z"/>
<path style="fill:#6b6765; stroke:none;" d="M240 210L241 211L240 210M339 210L340 211L339 210M172 211L173 212L172 211M180 211L181 212L180 211z"/>
<path style="fill:#c99517; stroke:none;" d="M233 211L234 212L233 211z"/>
<path style="fill:#6b6765; stroke:none;" d="M271 211L272 212L271 211z"/>
<path style="fill:#c99517; stroke:none;" d="M278 211L279 212L278 211M330 211L331 212L330 211z"/>
<path style="fill:#6b6765; stroke:none;" d="M239 212L240 213L239 212M173 213L174 214L173 213M181 213L182 214L181 213z"/>
<path style="fill:#c99517; stroke:none;" d="M232 213L233 214L232 213z"/>
<path style="fill:#6b6765; stroke:none;" d="M272 213L273 214L272 213z"/>
<path style="fill:#c99517; stroke:none;" d="M279 213L280 214L279 213M329 213L330 214L329 213M338 213L339 214L338 213M238 214L239 215L238 214M381.333 214.667C381.278 214.722 381.222 215.778 381.667 215.333C381.722 215.278 381.778 214.222 381.333 214.667z"/>
<path style="fill:#6b6765; stroke:none;" d="M174 215L175 216L174 215M182 215L183 216L182 215M231 215L232 216L231 215z"/>
<path style="fill:#c99517; stroke:none;" d="M273 215L274 216L273 215z"/>
<path style="fill:#6b6765; stroke:none;" d="M280 215L281 216L280 215z"/>
<path style="fill:#c99517; stroke:none;" d="M328 215L329 216L328 215z"/>
<path style="fill:#6b6765; stroke:none;" d="M337 215L338 216L337 215z"/>
<path style="fill:#c99517; stroke:none;" d="M174 216L175 217L174 216M230 216L231 217L230 216z"/>
<path style="fill:#6b6765; stroke:none;" d="M274 216L275 217L274 216M175 217L176 218L175 217M236 217L237 218L236 217M327 217L328 218L327 217M336 217L337 218L336 217M184 218L185 219L184 218M275 218L276 219L275 218M282 218L283 219L282 218z"/>
<path style="fill:#c99517; stroke:none;" d="M176 219L177 220L176 219z"/>
<path style="fill:#6b6765; stroke:none;" d="M228 219L229 220L228 219M283 219L284 220L283 219M177 220L178 221L177 220M227 220L228 221L227 220M234 220L235 221L234 220M284 220L285 221L284 220M325 220L326 221L325 220M334 220L335 221L334 220M178 221L179 222L178 221M226 221L227 222L226 221M233 221L234 222L233 221M285 221L286 222L285 221M324 221L325 222L324 221M333 221L334 222L333 221z"/>
<path style="fill:#c99517; stroke:none;" d="M132 222L133 223L132 222z"/>
<path style="fill:#6b6765; stroke:none;" d="M179 222L180 223L179 222z"/>
<path style="fill:#c99517; stroke:none;" d="M188 222L189 223L188 222z"/>
<path style="fill:#6b6765; stroke:none;" d="M225 222L226 223L225 222z"/>
<path style="fill:#c99517; stroke:none;" d="M278 222L279 223L278 222z"/>
<path style="fill:#6b6765; stroke:none;" d="M180 223L181 224L180 223M189 223L190 224L189 223z"/>
<path style="fill:#c99517; stroke:none;" d="M279 223L280 224L279 223M377 223L378 224L377 223z"/>
<path style="fill:#6b6765; stroke:none;" d="M181 224L182 225L181 224M190 224L191 225L190 224M222 224L223 225L222 224M230 224L231 225L230 224z"/>
<path style="fill:#c99517; stroke:none;" d="M280 224L281 225L280 224z"/>
<path style="fill:#6b6765; stroke:none;" d="M289 224L290 225L289 224M320 224L321 225L320 224z"/>
<path style="fill:#c99517; stroke:none;" d="M134 225L135 226L134 225M182 225L183 226L182 225z"/>
<path style="fill:#6b6765; stroke:none;" d="M192 225L193 226L192 225z"/>
<path style="fill:#c99517; stroke:none;" d="M220 225L221 226L220 225z"/>
<path style="fill:#6b6765; stroke:none;" d="M229 225L230 226L229 225z"/>
<path style="fill:#c99517; stroke:none;" d="M281 225L282 226L281 225z"/>
<path style="fill:#6b6765; stroke:none;" d="M291 225L292 226L291 225z"/>
<path style="fill:#c99517; stroke:none;" d="M318 225L319 226L318 225z"/>
<path style="fill:#6b6765; stroke:none;" d="M194 226L195 227L194 226M218 226L219 227L218 226M228 226L229 227L228 226M293 226L294 227L293 226M316 226L317 227L316 226M328 226L329 227L328 226z"/>
<path style="fill:#c99517; stroke:none;" d="M185 227L186 228L185 227z"/>
<path style="fill:#6b6765; stroke:none;" d="M197 227L198 228L197 227z"/>
<path style="fill:#c99517; stroke:none;" d="M214 227L215 228L214 227z"/>
<path style="fill:#6b6765; stroke:none;" d="M215 227L216 228L215 227M284 227L285 228L284 227M296 227L297 228L296 227z"/>
<path style="fill:#c99517; stroke:none;" d="M297 227L298 228L297 227z"/>
<path style="fill:#6b6765; stroke:none;" d="M313.667 227.333C313.222 227.778 314.278 227.722 314.333 227.667C314.778 227.222 313.722 227.278 313.667 227.333z"/>
<path style="fill:#c99517; stroke:none;" d="M327 227L328 228L327 227M374 227L375 228L374 227z"/>
<path style="fill:#6b6765; stroke:none;" d="M187 228L188 229L187 228M200.667 228.333C200.222 228.778 201.278 228.722 201.333 228.667C201.778 228.222 200.722 228.278 200.667 228.333z"/>
<path style="fill:#c99517; stroke:none;" d="M202.667 228.333C202.222 228.778 203.278 228.722 203.333 228.667C203.778 228.222 202.722 228.278 202.667 228.333z"/>
<path style="fill:#6b6765; stroke:none;" d="M209 228C210.248 228.685 210.548 228.749 212 229C210.752 228.315 210.452 228.251 209 228M225 228L226 229L225 228z"/>
<path style="fill:#c99517; stroke:none;" d="M285 228L286 229L285 228z"/>
<path style="fill:#6b6765; stroke:none;" d="M300 228C301.248 228.685 301.548 228.749 303 229C301.752 228.315 301.452 228.251 300 228z"/>
<path style="fill:#c99517; stroke:none;" d="M303 228C304.769 228.779 306.036 228.912 308 229C306.231 228.221 304.964 228.088 303 228z"/>
<path style="fill:#6b6765; stroke:none;" d="M308.667 228.333C308.222 228.778 309.278 228.722 309.333 228.667C309.778 228.222 308.722 228.278 308.667 228.333M325 228L326 229L325 228z"/>
<path style="fill:#c99517; stroke:none;" d="M373 228L374 229L373 228z"/>
<path style="fill:#6b6765; stroke:none;" d="M189 229L190 230L189 229M223 229L224 230L223 229M287 229L288 230L287 229M323 229L324 230L323 229z"/>
<path style="fill:#c99517; stroke:none;" d="M372 229L373 230L372 229z"/>
<path style="fill:#6b6765; stroke:none;" d="M191 230L192 231L191 230M221 230L222 231L221 230M289 230L290 231L289 230M321 230L322 231L321 230z"/>
<path style="fill:#c99517; stroke:none;" d="M140 231L141 232L140 231M193 231L194 232L193 231z"/>
<path style="fill:#6b6765; stroke:none;" d="M194 231L195 232L194 231M218 231L219 232L218 231z"/>
<path style="fill:#c99517; stroke:none;" d="M219 231L220 232L219 231M291 231L292 232L291 231z"/>
<path style="fill:#6b6765; stroke:none;" d="M292 231L293 232L292 231M318 231L319 232L318 231z"/>
<path style="fill:#c99517; stroke:none;" d="M319 231L320 232L319 231M196 232L197 233L196 232M214.667 232.333C214.222 232.778 215.278 232.722 215.333 232.667C215.778 232.222 214.722 232.278 214.667 232.333z"/>
<path style="fill:#6b6765; stroke:none;" d="M294.667 232.333C294.222 232.778 295.278 232.722 295.333 232.667C295.778 232.222 294.722 232.278 294.667 232.333M314 232L315 233L314 232z"/>
<path style="fill:#c99517; stroke:none;" d="M315 232L316 233L315 232M143 233L144 234L143 233z"/>
<path style="fill:#6b6765; stroke:none;" d="M201 233C203.613 234.098 206.165 233.993 209 234C206.387 232.902 203.835 233.007 201 233M299 233C302.697 234.552 307.017 234 311 234C307.303 232.448 302.983 233 299 233z"/>
<path style="fill:#c99517; stroke:none;" d="M365 234L366 235L365 234M363 235L364 236L363 235M153 237L153 268C154.328 264.834 154 261.419 154 258C154 251.58 155.497 242.951 153 237M358 237L358 268C359.328 264.834 359 261.419 359 258C359 251.58 360.497 242.951 358 237M154 268L155 269L154 268M356 270L357 271L356 270M156 271L157 272L156 271M354 273L355 274L354 273M158 274L159 275L158 274M352 276L353 277L352 276M160 277L161 278L160 277M162 280L163 281L162 280M164 283L165 284L164 283M166 286L167 287L166 286M168 289L169 290L168 289M170 292L171 293L170 292M172 295L173 296L172 295M174 298L175 299L174 298M214 309C216.643 310.153 219.468 310.476 222 312.018C227.83 315.569 232.734 321.033 239 323.861C242.41 325.4 246.353 325 250 325C256.793 325 265.452 326.421 272 324.487C279.163 322.372 284.293 315.417 291 312.279C294.17 310.795 297.589 311.003 301 311C295.911 306.405 288.251 303.893 282 301.14C279.129 299.875 276.252 298.153 273 298.484C266.741 299.121 261.543 303.219 255 303.47C249.122 303.695 244.74 298.877 239 298.434C231.615 297.864 220.431 305.572 214 309M176 301L177 302L176 301M178 304L179 305L178 304M180 307L181 308L180 307M182 310L183 311L182 310M184 313L185 314L184 313M186 316L187 317L186 316M188 319L189 320L188 319M190 322L191 323L190 322M192 325L193 326L192 325M317 328L318 329L317 328M315 331L316 332L315 331M313 334L314 335L313 334M311 337L312 338L311 337M309 340L310 341L309 340M307 343L308 344L307 343M305 346L306 347L305 346M207 347L208 348L207 347M303 349L304 350L303 349M209 350L210 351L209 350M301 352L302 353L301 352M322 429L323 430L322 429M188 431L189 432L188 431M323 431L324 432L323 431M187 433L188 434L187 433M324 433L325 434L324 433M186 435L187 436L186 435M325 435L326 436L325 435M185 437L186 438L185 437M326 437L327 438L326 437M184 439L185 440L184 439M327 439L328 440L327 439M92 512L420 512C413.52 502.193 405.543 493.294 398.35 484C393.716 478.013 388.993 470.227 382.91 465.649C377.643 461.684 370.081 459.83 364 457.4C352.57 452.831 340.864 447.245 329 444C322.668 454.346 317.458 465.338 311.691 476C305.646 487.178 298.89 498.255 294 510C284.791 501.518 275.881 492.838 267 484.001C264.367 481.38 260.208 475.829 256 476.117C252.121 476.383 248.512 481.463 246.004 484C237.554 492.548 229.514 501.486 221 510C214.005 493.288 202.827 477.729 193.85 462C191.265 457.472 187.793 447.408 182.79 445.213C180.277 444.111 177.322 445.688 175 446.601C169.33 448.83 163.714 451.204 158 453.319C149.011 456.646 136.681 459.573 129.09 465.499C123.628 469.763 119.695 476.622 115.4 482C107.538 491.842 98.9483 501.494 92 512z"/>
</svg>
