<?xml version="1.0" standalone="yes"?>
<svg xmlns="http://www.w3.org/2000/svg" width="508" height="494">
<path style="fill:#ffffff; stroke:none;" d="M0 0L0 494L508 494L508 0L0 0z"/>
<path style="fill:#80afe9; stroke:none;" d="M122 382L122 228L177 228C185.343 228 196.114 226.225 204 229.344C213.117 232.95 215.876 243.179 222.3 249.711C235.615 263.246 254.224 266.699 272 261.112C300.048 252.296 313.702 215.644 299.485 190C291.042 174.77 273.122 166.119 256 166.005C243.722 165.923 229.56 171.645 221.465 181.04C215.83 187.58 212.571 197.262 204 200.656C196.117 203.778 185.341 202 177 202L122 202L122 147C122 139.886 120.13 129.54 123.318 123C126.304 116.875 132.742 114.26 138 110.56C143.746 106.518 148.413 101.276 151.626 95C158.101 82.3519 160.166 68.5316 155.049 55C145.118 28.7336 109.023 13.6333 84 28.3518C77.2191 32.3403 71.8655 38.5379 67.5201 45C63.0235 51.6868 61.22 58.101 60.2855 66C58.6869 79.5112 64.2056 96.3636 74.0934 105.816C80.4842 111.925 89.2743 115.078 93.9907 123C97.0905 128.206 96.268 136.092 96.8302 142C98.5774 160.36 96 179.531 96 198L96 327L96 375C96 382.957 94.6184 392.503 97.8542 399.996C101.171 407.678 109.736 407.988 117 408L170 408C177.188 408 186.124 409.215 191.146 402.787C198.103 393.882 190.361 383.967 181 381.96C161.451 377.769 141.698 382 122 382M397 223.594C372.187 229.252 358.215 248.785 341 266L265 342C252.251 354.749 236.237 366.414 226.775 382C221.968 389.92 220.88 399.272 218.279 408C214.388 421.06 208.034 435.117 208.183 449C208.298 459.744 216.376 463.856 226 462.826C239.529 461.379 252.142 455.006 265 451.025C276.567 447.445 288.768 445.825 299 438.779C310.096 431.139 318.976 419.783 328.09 410C342.459 394.574 357.762 379.61 373 365.039C395.026 343.978 422.073 325.562 439.251 300C457.377 273.027 448.574 234.097 415 225.015C409.286 223.469 402.86 222.258 397 223.594z"/>
<path style="fill:#ffffff; stroke:none;" d="M355 288C350.286 294.692 343.78 300.22 338 306L308 336L278 366C272.22 371.78 266.692 378.286 260 383C261.727 387.491 264.678 391.243 267.666 395C272.968 401.666 280.48 410.455 290 408.771C297.026 407.528 304.111 398.827 309 393.996C322.92 380.242 336.155 365.845 350 352C355.92 346.08 361.677 339.918 368 334.424C372.98 330.098 379.638 324.94 380.775 318C382.825 305.485 365.217 291.951 355 288z"/>
</svg>
